<?xml version="1.0" encoding="utf-8"?>
<!-- Generator: Adobe Illustrator 15.0.0, SVG Export Plug-In . SVG Version: 6.00 Build 0)  -->
<!DOCTYPE svg PUBLIC "-//W3C//DTD SVG 1.1//EN" "http://www.w3.org/Graphics/SVG/1.1/DTD/svg11.dtd">
<svg version="1.1" id="Layer_1" xmlns:sketch="http://www.bohemiancoding.com/sketch/ns"
	 xmlns="http://www.w3.org/2000/svg" xmlns:xlink="http://www.w3.org/1999/xlink" x="0px" y="0px" width="32px" height="32px"
	 viewBox="0 0 32 32" enable-background="new 0 0 32 32" xml:space="preserve">
<title></title>
<desc></desc>
<g id="Page-1">
	<g id="icon-40-clipboard-list">
		<path id="clipboard-list" fill="#406DE4" d="M12,5V3.998C12,2.898,12.897,2,14.005,2h0.99C16.106,2,17,2.895,17,3.998V5h2.004
			C19.555,5,20,5.447,20,5.999v1.002C20,7.557,19.555,8,19.004,8H9.996C9.445,8,9,7.553,9,7.001V5.999C9,5.443,9.446,5,9.996,5H12
			L12,5z M11,4h-0.997C8.898,4,8.002,4.891,8,6H6.998C5.895,6,5,6.89,5,8.003v20.993C5,30.104,5.891,31,6.998,31h15.004
			C23.105,31,24,30.11,24,28.996V8.003C24,6.897,23.109,6,22.002,6H21l0,0c-0.002-1.105-0.895-2-2.003-2H18
			c-0.001-1.657-1.35-3-3.009-3h-0.981C12.348,1,11.001,2.338,11,4L11,4L11,4z M21,7h1c0.545,0,1,0.449,1,1.003v20.994
			C23,29.561,22.553,30,22,30H7c-0.545,0-1-0.449-1-1.003V8.003C6,7.439,6.448,7,7,7h1c0.002,1.105,0.895,2,2.003,2h8.994
			C20.102,9,20.998,8.109,21,7L21,7L21,7z M14.5,5C14.776,5,15,4.776,15,4.5S14.776,4,14.5,4S14,4.224,14,4.5S14.224,5,14.5,5
			L14.5,5z M13,14v1h8v-1H13L13,14z M8,13v3h3v-3H8L8,13z M9,14v1h1v-1H9L9,14z M8,18v3h3v-3H8L8,18z M9,19v1h1v-1H9L9,19z M13,19v1
			h8v-1H13L13,19z M8,23v3h3v-3H8L8,23z M9,24v1h1v-1H9L9,24z M13,24v1h8v-1H13L13,24z"/>
	</g>
</g>
</svg>
