<?xml version="1.0" encoding="utf-8"?>
<!-- Generator: Adobe Illustrator 17.0.0, SVG Export Plug-In . SVG Version: 6.00 Build 0)  -->
<!DOCTYPE svg PUBLIC "-//W3C//DTD SVG 1.1//EN" "http://www.w3.org/Graphics/SVG/1.1/DTD/svg11.dtd">
<svg version="1.1" id="Слой_1" xmlns="http://www.w3.org/2000/svg" xmlns:xlink="http://www.w3.org/1999/xlink" x="0px" y="0px"
	 width="32px" height="32px" viewBox="0 0 32 32" enable-background="new 0 0 32 32" xml:space="preserve">
<circle fill="#070707" cx="16" cy="16" r="15.5"/>
<g display="none">
	<path display="inline" fill="#EBE6DF" d="M25.175,24.275H3.325c-1.375,0-2.5-1.125-2.5-2.5V10c0-1.375,1.125-2.5,2.5-2.5H25.15
		c1.375,0,2.5,1.125,2.5,2.5v11.775C27.675,23.15,26.55,24.275,25.175,24.275z"/>
	<path display="inline" fill="#FFFFFF" d="M3.075,22.025v-12.3c0-1.225,1-2.225,2.225-2.225H3.075c-1.225,0-2.225,1-2.225,2.225
		v12.3c0,1.225,1,2.225,2.225,2.225H5.3C4.075,24.275,3.075,23.275,3.075,22.025z"/>
	<polygon display="inline" fill="#F7CA18" points="11.572,13.029 18.028,16.447 11.572,19.827 	"/>
	<path display="inline" fill="#CF000F" d="M3.075,24.6h22.35C26.85,24.6,28,23.45,28,22.025v-12.3C28,8.3,26.85,7.15,25.425,7.15
		H3.075C1.65,7.15,0.5,8.325,0.5,9.725v12.3C0.5,23.45,1.65,24.6,3.075,24.6z M1.175,9.725c0-1.05,0.85-1.9,1.9-1.9h22.35
		c1.05,0,1.9,0.85,1.9,1.9v12.3c0,1.05-0.85,1.9-1.9,1.9H3.075c-1.05,0-1.9-0.85-1.9-1.9C1.175,22.025,1.175,9.725,1.175,9.725z"/>
	<path display="inline" fill="#62355C" d="M20.95,26.85c0.175,0,0.325-0.15,0.325-0.325S21.125,26.2,20.95,26.2H7.55
		c-0.175,0-0.325,0.15-0.325,0.325s0.15,0.325,0.325,0.325H20.95z"/>
	<path display="inline" fill="#62355C" d="M11.306,20.282c0.076,0.038,0.19,0.076,0.266,0.076s0.152-0.038,0.228-0.076l6.456-3.38
		c0.152-0.076,0.266-0.266,0.266-0.456s-0.114-0.38-0.266-0.456l-6.456-3.38c-0.152-0.076-0.342-0.076-0.494,0
		c-0.152,0.076-0.228,0.266-0.228,0.418v6.798C11.078,20.017,11.154,20.168,11.306,20.282z M12.104,13.864l4.861,2.544l-4.861,2.544
		C12.104,18.953,12.104,13.864,12.104,13.864z"/>
	<path display="inline" fill="#CF000F" d="M7.55,26.85h13.425c0.175,0,0.325-0.15,0.325-0.325S21.15,26.2,20.975,26.2H7.55
		c-0.175,0-0.325,0.15-0.325,0.325S7.35,26.85,7.55,26.85z"/>
</g>
<g display="none">
	<g display="inline">
		<g>
			<g>
				<g>
					<path fill="#FFFFFF" d="M28.747,24.919V7.672c0-0.412-0.337-0.75-0.75-0.75H4.007c-0.412,0-0.75,0.338-0.75,0.75v17.247
						C3.257,24.919,28.81,24.919,28.747,24.919z"/>
				</g>
			</g>
			<g>
				<g>
					<rect x="4.194" y="7.859" fill="#333333" width="23.616" height="16.122"/>
				</g>
			</g>
			<g>
				<g>
					<rect x="1" y="24.919" fill="#D8D8D8" width="29.995" height="0.469"/>
				</g>
			</g>
			<g>
				<g>
					<polygon fill="#AAAAAA" points="29.5,26.324 2.505,26.324 1.005,25.388 31,25.388 					"/>
				</g>
			</g>
			<g opacity="0.7">
				<g>
					<path fill="#FFFFFF" d="M18.519,24.919h-5.043c0.048,0.263,0.283,0.469,0.576,0.469h3.891
						C18.236,25.388,18.472,25.181,18.519,24.919z"/>
				</g>
			</g>
		</g>
	</g>
</g>
<g display="none">
	<g display="inline">
		<g>
			<g>
				<circle fill="#DB2B42" cx="10.493" cy="9" r="0.501"/>
			</g>
		</g>
		<g>
			<g>
				<circle fill="#DB2B42" cx="8.493" cy="9" r="0.501"/>
			</g>
		</g>
		<g>
			<g>
				<circle fill="#DB2B42" cx="6.493" cy="9" r="0.501"/>
			</g>
		</g>
		<g>
			<g>
				<rect x="11.992" y="8.75" fill="#E9EDF1" width="14" height="0.5"/>
			</g>
		</g>
	</g>
</g>
<g id="Flat_1" display="none">
	<g display="inline">
		<g>
			<g>
				<rect x="18.023" y="12.25" fill="#E9EDF1" width="6.963" height="1.583"/>
			</g>
		</g>
		<g>
			<g>
				<rect x="18.023" y="14.889" fill="#E9EDF1" width="6.963" height="1.583"/>
			</g>
		</g>
		<g>
			<g>
				<rect x="18.023" y="17.528" fill="#E9EDF1" width="6.963" height="1.583"/>
			</g>
		</g>
		<g>
			<g>
				<rect x="18.023" y="20.167" fill="#E9EDF1" width="6.963" height="1.583"/>
			</g>
		</g>
		<g>
			<g>
				<rect x="6.987" y="21.25" fill="#E9EDF1" width="9.231" height="0.5"/>
			</g>
		</g>
		<g>
			<g>
				<g>
					<path fill="#F7CA18" d="M15.671,19.917H7.534c-0.301,0-0.547-0.246-0.547-0.547v-6.572c0-0.301,0.246-0.547,0.547-0.547h8.137
						c0.301,0,0.547,0.246,0.547,0.547v6.573C16.218,19.67,15.972,19.917,15.671,19.917z"/>
				</g>
			</g>
			<g>
				<g>
					<polygon fill="#FFFFFF" points="10.484,14.114 13.839,16.051 10.484,17.988 					"/>
				</g>
			</g>
		</g>
	</g>
</g>
<path fill="#FFFFFF" d="M11.073,5.804V4.939c0-1.107,0.905-2.012,2.012-2.012h9.236c0.543,0,1.046,0.221,1.429,0.584l2.837,2.837
	c0.382,0.382,0.584,0.885,0.584,1.429v14.266c0,1.107-0.905,2.012-2.012,2.012h-4.97"/>
<path opacity="0.1" enable-background="new    " d="M21.939,24.055v-13.26c0-1.066-0.423-2.093-1.187-2.837L17.915,5.12
	c-0.765-0.765-1.771-1.187-2.837-1.187h-3.743c-0.181,0.302-0.262,0.644-0.262,1.006v0.865l9.115,18.251H21.939z"/>
<path fill="#F0EF98" d="M17.915,27.073H5.841c-1.107,0-2.012-0.905-2.012-2.012V7.957c0-1.107,0.905-2.012,2.012-2.012h9.236
	c0.543,0,1.046,0.221,1.429,0.584l2.837,2.837c0.382,0.382,0.584,0.885,0.584,1.429v14.266
	C19.927,26.168,19.021,27.073,17.915,27.073z"/>
<path fill="#FFFFFF" d="M5.841,25.061V7.957c0-1.107,0.905-2.012,2.012-2.012H5.841c-1.107,0-2.012,0.905-2.012,2.012v17.104
	c0,1.107,0.905,2.012,2.012,2.012h2.012C6.747,27.073,5.841,26.168,5.841,25.061z"/>
<path fill="#62355C" d="M5.841,27.375h12.073c1.268,0,2.314-1.046,2.314-2.314v-0.704h4.93c1.268,0,2.314-1.046,2.314-2.314V7.776
	c0-0.624-0.241-1.207-0.684-1.63l-2.837-2.837c-0.443-0.443-1.026-0.684-1.63-0.684h-9.236c-1.268,0-2.314,1.046-2.314,2.314v0.704
	h-4.93c-1.268,0-2.314,1.046-2.314,2.314v17.104C3.527,26.329,4.574,27.375,5.841,27.375z M11.375,4.939
	c0-0.946,0.765-1.71,1.71-1.71h9.236c0.463,0,0.885,0.181,1.207,0.503l2.837,2.837c0.322,0.322,0.503,0.745,0.503,1.207v14.266
	c0,0.946-0.765,1.71-1.71,1.71h-4.93v-3.421h4.729c0.161,0,0.302-0.141,0.302-0.302s-0.141-0.302-0.302-0.302h-4.729v-3.421h4.729
	c0.161,0,0.302-0.141,0.302-0.302s-0.141-0.302-0.302-0.302h-4.729v-4.91c0-0.624-0.241-1.207-0.684-1.63l-2.837-2.837
	c-0.443-0.443-1.026-0.684-1.63-0.684h-3.702V4.939z M4.131,7.957c0-0.946,0.765-1.71,1.71-1.71h9.236
	c0.463,0,0.885,0.181,1.207,0.503l2.837,2.837c0.322,0.322,0.503,0.745,0.503,1.207v14.266c0,0.946-0.765,1.71-1.71,1.71H5.841
	c-0.946,0-1.71-0.765-1.71-1.71V7.957z"/>
<rect x="6.354" y="11.5" fill="none" stroke="#CF000F" stroke-miterlimit="10" width="3" height="3"/>
<rect x="6.354" y="16.5" fill="none" stroke="#CF000F" stroke-miterlimit="10" width="3" height="3"/>
<rect x="6.354" y="21.5" fill="none" stroke="#CF000F" stroke-miterlimit="10" width="3" height="3"/>
<line fill="none" stroke="#CF000F" stroke-miterlimit="10" x1="11.073" y1="13" x2="18.75" y2="13"/>
<line fill="none" stroke="#CF000F" stroke-miterlimit="10" x1="11.073" y1="18" x2="18.75" y2="18"/>
<line fill="none" stroke="#CF000F" stroke-miterlimit="10" x1="11.073" y1="23" x2="18.75" y2="23"/>
<polyline fill="none" stroke="#020202" stroke-miterlimit="10" points="7.854,13 8.667,13.994 11.878,10.917 "/>
</svg>
