<?xml version="1.0" encoding="utf-8"?>
<!-- Generator: Adobe Illustrator 17.0.0, SVG Export Plug-In . SVG Version: 6.00 Build 0)  -->
<!DOCTYPE svg PUBLIC "-//W3C//DTD SVG 1.1//EN" "http://www.w3.org/Graphics/SVG/1.1/DTD/svg11.dtd">
<svg version="1.1" id="Слой_1" xmlns="http://www.w3.org/2000/svg" xmlns:xlink="http://www.w3.org/1999/xlink" x="0px" y="0px"
	 width="32px" height="32px" viewBox="0 0 32 32" enable-background="new 0 0 32 32" xml:space="preserve">
<circle fill="#070707" cx="16" cy="16" r="15.5"/>
<g>
	<path fill="#EBE6DF" d="M25.464,22.302H6.536c-1.191,0-2.166-0.975-2.166-2.166v-10.2c0-1.191,0.975-2.166,2.166-2.166h18.905
		c1.191,0,2.166,0.975,2.166,2.166v10.2C27.629,21.327,26.655,22.302,25.464,22.302z"/>
	<path fill="#FFFFFF" d="M6.32,20.353V9.698c0-1.061,0.866-1.927,1.927-1.927H6.32c-1.061,0-1.927,0.866-1.927,1.927v10.655
		c0,1.061,0.866,1.927,1.927,1.927h1.927C7.186,22.302,6.32,21.436,6.32,20.353z"/>
	<polygon fill="#F7CA18" points="13.68,12.56 19.273,15.521 13.68,18.449 	"/>
	<path fill="#CF000F" d="M6.32,22.583h19.36c1.234,0,2.231-0.996,2.231-2.231V9.698c0-1.234-0.996-2.231-2.231-2.231H6.32
		c-1.234,0-2.231,1.018-2.231,2.231v10.655C4.089,21.587,5.086,22.583,6.32,22.583z M4.674,9.698c0-0.91,0.736-1.646,1.646-1.646
		h19.36c0.91,0,1.646,0.736,1.646,1.646v10.655c0,0.91-0.736,1.646-1.646,1.646H6.32c-0.91,0-1.646-0.736-1.646-1.646
		C4.674,20.353,4.674,9.698,4.674,9.698z"/>
	<path fill="#62355C" d="M21.804,24.532c0.152,0,0.282-0.13,0.282-0.282s-0.13-0.282-0.282-0.282H10.196
		c-0.152,0-0.282,0.13-0.282,0.282s0.13,0.282,0.282,0.282C10.196,24.532,21.804,24.532,21.804,24.532z"/>
	<path fill="#62355C" d="M13.45,18.843c0.066,0.033,0.165,0.066,0.23,0.066s0.132-0.033,0.197-0.066l5.592-2.928
		c0.132-0.066,0.23-0.23,0.23-0.395c0-0.165-0.099-0.329-0.23-0.395l-5.592-2.928c-0.132-0.066-0.296-0.066-0.428,0
		c-0.132,0.066-0.197,0.23-0.197,0.362v5.889C13.252,18.613,13.318,18.744,13.45,18.843z M14.141,13.284l4.211,2.204l-4.211,2.204
		C14.141,17.692,14.141,13.284,14.141,13.284z"/>
	<path fill="#CF000F" d="M10.196,24.532h11.629c0.152,0,0.282-0.13,0.282-0.282s-0.13-0.282-0.282-0.282H10.196
		c-0.152,0-0.282,0.13-0.282,0.282S10.023,24.532,10.196,24.532z"/>
</g>
</svg>
