<?xml version="1.0" encoding="utf-8"?>
<!-- Generator: Adobe Illustrator 17.0.0, SVG Export Plug-In . SVG Version: 6.00 Build 0)  -->
<!DOCTYPE svg PUBLIC "-//W3C//DTD SVG 1.1//EN" "http://www.w3.org/Graphics/SVG/1.1/DTD/svg11.dtd">
<svg version="1.1" id="Layer_1" xmlns="http://www.w3.org/2000/svg" xmlns:xlink="http://www.w3.org/1999/xlink" x="0px" y="0px"
	 width="150px" height="144px" viewBox="0 0 150 144" enable-background="new 0 0 150 144" xml:space="preserve">
<rect opacity="0.8" width="150" height="144"/>
<g>
	<g>
		<path fill="#F6F3E0" d="M105.21,53.52v48.75c0,5.395-4.355,9.75-9.75,9.75h-39c-5.395,0-9.75-4.355-9.75-9.75v-58.5
			c0-5.395,4.355-9.75,9.75-9.75h29.25L105.21,53.52z"/>
	</g>
	<g>
		<path fill="#2D2E2D" d="M95.46,112.8h-39c-5.85,0-10.53-4.745-10.53-10.53v-58.5c0-5.85,4.68-10.53,10.53-10.53h29.25
			c0.195,0,0.39,0.065,0.585,0.26l19.5,19.5c0.13,0.13,0.26,0.39,0.26,0.585v48.75C105.99,108.12,101.31,112.8,95.46,112.8z
			 M56.46,34.8c-4.94,0-8.97,4.03-8.97,8.97v58.5c0,4.94,4.03,8.97,8.97,8.97h39c4.94,0,8.97-4.03,8.97-8.97V53.845L85.385,34.8
			H56.46z"/>
	</g>
	<g>
		<path fill="#2D2E2D" d="M95.46,103.05h-39c-0.455,0-0.78-0.39-0.78-0.78s0.39-0.78,0.78-0.78h39c0.455,0,0.78,0.39,0.78,0.78
			S95.915,103.05,95.46,103.05z"/>
	</g>
	<g>
		<path fill="#2D2E2D" d="M95.46,95.25h-39c-0.455,0-0.78-0.39-0.78-0.78s0.39-0.78,0.78-0.78h39c0.455,0,0.78,0.39,0.78,0.78
			S95.915,95.25,95.46,95.25z"/>
	</g>
	<g>
		<path fill="#2D2E2D" d="M95.46,87.45h-39c-0.455,0-0.78-0.39-0.78-0.78s0.39-0.78,0.78-0.78h39c0.455,0,0.78,0.39,0.78,0.78
			S95.915,87.45,95.46,87.45z"/>
	</g>
	<g opacity="0.1">
		<path fill="#030505" d="M105.21,56.12v-2.6l-19.5-19.5h-2.6v9.75c0,6.825,5.525,12.35,12.35,12.35H105.21z"/>
	</g>
	<g>
		<path fill="#F9E373" d="M85.71,43.77c0,5.395,4.355,9.75,9.75,9.75h9.75l-19.5-19.5V43.77z"/>
	</g>
	<g>
		<path fill="#2D2E2D" d="M105.21,54.3h-9.75c-5.85,0-10.53-4.745-10.53-10.53v-9.75c0-0.325,0.195-0.65,0.52-0.78
			c0.325-0.13,0.65-0.065,0.91,0.195l19.5,19.5c0.26,0.26,0.325,0.585,0.195,0.91C105.86,54.105,105.535,54.3,105.21,54.3z
			 M86.49,35.97v7.8c0,4.94,4.03,8.97,8.97,8.97h7.8L86.49,35.97z"/>
	</g>
	<g>
		<path fill="#2D2E2D" d="M95.46,79.65h-39c-0.455,0-0.78-0.39-0.78-0.78s0.39-0.78,0.78-0.78h39c0.455,0,0.78,0.39,0.78,0.78
			S95.915,79.65,95.46,79.65z"/>
	</g>
	<g>
		<path fill="#2D2E2D" d="M95.46,71.85h-39c-0.455,0-0.78-0.39-0.78-0.78s0.39-0.78,0.78-0.78h39c0.455,0,0.78,0.39,0.78,0.78
			S95.915,71.85,95.46,71.85z"/>
	</g>
	<g>
		<path fill="#2D2E2D" d="M95.46,64.05h-39c-0.455,0-0.78-0.39-0.78-0.78s0.39-0.78,0.78-0.78h39c0.455,0,0.78,0.39,0.78,0.78
			S95.915,64.05,95.46,64.05z"/>
	</g>
	<g>
		<path fill="#2D2E2D" d="M80.51,56.25H56.166c-0.283,0-0.486-0.39-0.486-0.78c0-0.39,0.244-0.78,0.486-0.78H80.51
			c0.283,0,0.486,0.39,0.486,0.78C80.996,55.86,80.793,56.25,80.51,56.25z"/>
	</g>
</g>
</svg>
