<svg xmlns="http://www.w3.org/2000/svg" width="200" height="200" viewBox="0 0 200 200"><path fill="#424343" d="M200 100.002c0 55.23-44.771 99.998-99.996 99.998-55.232 0-100.004-44.768-100.004-99.998 0-55.229 44.772-100.002 100.004-100.002 55.225 0 99.996 44.773 99.996 100.002z"/><path fill="#fff" d="M172.001 127.832c-.019-.111-.052-.22-.098-.322-.993-2.192-2.799-4.268-5.374-6.205l.168-26.144c2.725-11.746 1.648-21.184-3.201-28.054-6.219-8.813-16.299-10.034-16.635-10.068-11.386-2.091-20.714 4.274-23.418 6.374-.604-1.325-1.397-2.556-2.406-3.675-6.685-7.414-19.811-7.499-20.366-7.499s-13.682.085-20.367 7.499c-.36.4-.694.814-1.003 1.24-.828-.714-1.997-1.618-3.194-2.364.055-.219.053-.451-.011-.674-.072-.251-.761-2.291-4.206-2.62-.551-1.31-1.84-2.87-4.312-3.069-.322-.027-.64.073-.894.263-.332.248-3.358 2.313-7.214-1.605-.28-.284-.684-.419-1.071-.38-.396.045-.751.269-.961.608-.467.755-.805 1.342-1.04 1.773-12.917-2.328-14.779-5.683-14.788-5.683v.001c-.164-.471-.582-.806-1.076-.863-.49-.051-.978.172-1.246.59-6.535 10.208-7.337 14.466-3.756 21.042-.435 2.049-1.692 9.633 1.7 16.27-1.117 1.12-1.815 2.649-1.815 4.342 0 2.439 1.442 4.653 3.675 5.639.171.075.35.111.524.111.134 0 .251-.071.378-.111.744 6.99 4.628 11.356 8.877 13.833v2.998l-.111.024-2.509 1.107c-1.412.624-2.4 1.825-2.787 3.221l-.177.057-6.632 3.713c-4.315 2.503-7.195 5.299-8.56 8.31-.046.103-.079.211-.098.322l-1.728 10.351c-.062.377.043.763.29 1.054.247.292.61.46.992.46h38.189c.295 0 .555-.116.773-.282l-1.418 4.543c-.123.395-.051.825.194 1.158.244.333.634.529 1.047.529h68.88c.413 0 .803-.196 1.047-.529.245-.333.317-.764.194-1.158l-1.33-4.261h37.318c.382 0 .745-.168.992-.46.247-.291.353-.677.29-1.054l-1.726-10.352zm-47.639-61.822c.1-.087 9.996-8.625 22.121-6.402.093.011 9.337 1.13 14.89 8.997 4.422 6.265 5.351 15.048 2.761 26.104l-.034.288-.158 24.569-.615-.378-6.613-3.702-.185-.06c-.4-1.401-1.423-2.615-2.931-3.274l-2.906-.874v-4.451l-.029-.142c2.008-1.339 3.686-2.977 4.983-4.94 4.397-6.655 3.72-15.547 2.377-21.834-.075-.353-.296-.658-.605-.844-.309-.186-.681-.231-1.03-.133-.017.005-1.738.495-4.154.495-4.205 0-9.976-1.448-13.588-8.348-.233-.448-.679-.717-1.212-.696-.505.023-.95.338-1.143.806-1.076 2.627-3.214 3.959-6.353 3.959-1.324 0-2.312-.258-2.323-.261-.681-.18-1.385.214-1.583.889-.683 2.324-1.43 5.444-1.806 8.864-.21-.184-.429-.354-.66-.512l1.127-12.077c.224-2.167.092-4.173-.355-6.029l.024-.014zm17.31 56.643l-3.521-6.143-.037-.039c1.115.194 2.243.321 3.388.321 1.345 0 2.67-.151 3.974-.418l-.114.115-3.69 6.164zm-14.709-7.221l-.259.105-7.357 4.859c-.216.143-.354.348-.451.568l-2.656-.717c-.401-1.448-1.426-2.694-2.891-3.341l-1.988-.878v-3.634c4.93-2.859 9.455-7.935 10.33-16.123l.236.069c.175 0 .354-.036.523-.111.802-.354 1.5-.859 2.098-1.457.464 2.24 1.24 4.417 2.449 6.406 1.346 2.215 3.141 4.046 5.34 5.512l-.027.136v4.376l-2.561 1.005c-1.411.626-2.399 1.828-2.786 3.225zm-26.267 12.511l-2.787-4.861c.941.117 1.889.19 2.846.19.959 0 1.907-.074 2.849-.19l-2.908 4.861zm-15.381-7.695l-3.559.961c-.077-.089-.148-.182-.251-.25l-8.209-5.422-.259-.104c-.386-1.397-1.375-2.599-2.788-3.224l-2.508-1.107-.289-.063v-2.955c4.394-2.554 8.42-7.098 8.955-14.474l.008-.068c.725 1.162 1.784 2.113 3.089 2.689.096.043.197.045.296.063.834 8.182 5.388 13.258 10.349 16.116v3.639l-1.944.859c-1.464.646-2.489 1.892-2.89 3.34zm-26.987 2.405l-3.256-5.442c1.019.159 2.047.268 3.09.268 1.117 0 2.217-.122 3.307-.304l-3.141 5.478zm8.375-7.084c.457-.214.749-.673.749-1.178v-.575l1.746.771c1.07.473 1.636 1.638 1.345 2.77l-1.259 4.896c-.047.181-.177.243-.277.264-.102.018-.245.015-.359-.134l-4.503-5.84c.864-.273 1.721-.583 2.558-.974zm14.019-29.756c-.554 3.322-.809 5.897-.921 7.565-1.13-.809-1.85-2.095-1.85-3.52 0-1.834 1.138-3.405 2.771-4.045zm43.274 3.945l.005.127c-.01 1.612-.926 3.055-2.338 3.802-.157-1.728-.468-4.625-1.001-8.054 1.904.456 3.288 2.128 3.334 4.125zm-4.787 5.633c-.964 13.24-12.849 17.523-18.453 17.523s-17.489-4.283-18.449-17.428c0-.102.071-10.329 5.061-25.65.224-.688.747-1.422 1.547-1.422h23.685c.944 0 1.437 1.127 1.564 1.472 4.025 10.851 5.032 25.506 5.045 25.505zm-26.459 23.654v-5.347c2.979 1.264 5.886 1.816 8.006 1.816s5.028-.552 8.007-1.823v5.354c-5.122 2.162-10.892 2.162-16.013 0zm-3.494.241l.894-.395v.998c0 .505.292.964.749 1.178 1.021.477 2.067.849 3.124 1.172l-4.111 5.331c-.147.192-.343.186-.44.164-.102-.021-.281-.091-.342-.325l-1.322-5.139c-.313-1.221.296-2.475 1.448-2.984zm21.357 1.781c.457-.214.749-.673.749-1.178v-1.018l.938.414c1.152.509 1.762 1.764 1.448 2.983l-1.322 5.141c-.061.233-.239.304-.341.324-.1.021-.292.028-.441-.164l-4.118-5.342c1.043-.32 2.078-.688 3.087-1.16zm17.595-43.43c.481.062 1.072.113 1.729.113 3.273 0 5.894-1.217 7.582-3.476 4.483 6.693 11.021 7.755 14.713 7.755 1.427 0 2.641-.147 3.503-.297 1.054 5.677 1.362 13.098-2.259 18.579-2.451 3.709-6.479 6.157-11.975 7.278-5.73-1.169-9.861-3.779-12.281-7.762-1.78-2.93-2.502-6.371-2.628-9.802l.012-.169-.025-.264c-.096-4.408.765-8.764 1.629-11.955zm6.703 35.242v-4.729c1.885.895 3.993 1.584 6.342 2.043l.249.023.249-.023c2.344-.458 4.458-1.138 6.341-2.031v4.718c-4.222 1.746-8.962 1.744-13.181-.001zm-4.161 1.729l1.631-.64c.08.399.301.759.679.936 1.071.5 2.173.874 3.289 1.177-.128.081-.26.158-.356.282l-4.641 6.02c-.115.148-.257.151-.359.134-.101-.021-.23-.083-.277-.264l-1.259-4.896c-.29-1.132.275-2.297 1.293-2.749zm19.192.296c.378-.177.598-.536.678-.935l2.077.619c1.069.473 1.635 1.638 1.344 2.77l-1.259 4.896c-.047.181-.177.243-.277.264-.101.018-.245.015-.359-.134l-4.641-6.02c-.133-.172-.306-.298-.498-.382.994-.29 1.978-.631 2.935-1.078zm-49.272-60.067c.125 0 12.539.092 18.442 6.646 2.417 2.684 3.424 6.15 2.992 10.316l-1.051 11.271c-.212-.044-.417-.107-.636-.131l-.203.017c-.794-4.458-1.947-9.48-3.615-13.975-.736-1.982-2.232-3.166-4.002-3.166h-23.683c-1.806 0-3.383 1.263-4.02 3.217-1.743 5.351-2.89 10.05-3.659 13.97-.317.049-.634.103-.935.193l-1.065-11.408c-.431-4.153.577-7.62 2.994-10.304 5.904-6.555 18.318-6.646 18.441-6.646zm-62.501 13.287c.083-.325.038-.671-.127-.963-3.012-5.332-3.103-8.281 2.484-17.299 1.886 1.661 6.262 4.061 16.374 5.773.579.091 1.161-.214 1.404-.753.002-.005.156-.346.548-1.04 3.666 2.889 7.152 2.14 8.936 1.059 1.494.32 1.793 1.601 1.838 1.86.093.638.641 1.111 1.286 1.111.603 0 1.076.06 1.445.146-.178.285-.239.633-.164.969.096.431.404.783.818.937 1.562.576 3.872 2.341 4.956 3.344-1.204 2.561-1.66 5.493-1.32 8.773l1.149 12.311.054.178c-.544.456-1.021.987-1.403 1.586-.269-3.259-.95-7.288-2.512-11.497-.658-1.777-2.008-2.839-3.607-2.839h-24.334c-1.631 0-3.055 1.134-3.626 2.889-.999 3.067-1.675 5.699-2.126 7.949-.278.062-.548.137-.809.234-3.257-6.656-1.285-14.644-1.264-14.728zm-.152 20.483c0-1.198.597-2.258 1.516-2.905l.008-.002.011-.01.195-.125c-.354 2.638-.353 4.567-.232 5.907-.917-.662-1.498-1.708-1.498-2.865zm4.484 4.736c-.01-.124-.044-.265-.087-.381-.018-.047-1.703-4.811 2.426-17.489.172-.528.565-1.094 1.153-1.094h24.337c.692 0 1.07.875 1.17 1.144 3.397 9.154 2.34 17.661 2.321 17.821-.816 11.238-10.902 14.875-15.659 14.875s-14.843-3.636-15.661-14.876zm15.661 17.476c1.778 0 4.196-.442 6.69-1.461v4.185c-4.283 1.773-9.098 1.773-13.381 0v-4.189c2.495 1.022 4.913 1.465 6.691 1.465zm-10.86 3.769l1.569-.693v.496c0 .505.292.964.749 1.178.883.413 1.789.734 2.704 1.014l-4.471 5.799c-.114.148-.258.151-.359.134-.101-.021-.23-.083-.277-.264l-1.259-4.896c-.291-1.131.275-2.296 1.344-2.768zm-16.768 13.845c1.155-2.422 3.719-4.834 7.409-6.975l5.583-3.125 1.174 4.567c.284 1.104 1.155 1.933 2.272 2.162 1.112.229 2.244-.189 2.94-1.093l3.476-4.509 3.664 6.122v11.512h-27.964l1.446-8.661zm35.209 8.663h-6.091v-11.525l3.484-6.078 3.452 4.478c.696.902 1.824 1.322 2.94 1.093 1.117-.229 1.988-1.058 2.272-2.162l1.151-4.474 5.545 3.662-.046.012c-4.465 1.205-7.953 4.561-9.332 8.975l-2.158 6.913c-.172-.516-.644-.894-1.217-.894zm5.858-5.245c1.111-3.562 3.926-6.268 7.527-7.24l6.169-1.666 1.315 5.112c.292 1.136 1.188 1.988 2.337 2.224 1.14.237 2.306-.194 3.021-1.123l3.685-4.778 3.716 6.481v12.184h-31.265l3.495-11.194zm30.37 11.194v-12.171l3.905-6.526 3.708 4.81c.715.929 1.873 1.36 3.023 1.123 1.148-.236 2.044-1.089 2.335-2.224l1.315-5.112 6.17 1.666c3.602.973 6.416 3.679 7.527 7.24l3.495 11.193h-31.478zm30.467-11.969c-1.379-4.414-4.867-7.77-9.332-8.975l-1.151-.311 5.093-3.364 1.151 4.474c.284 1.104 1.155 1.933 2.272 2.162 1.112.229 2.244-.189 2.94-1.093l3.452-4.478 3.484 6.078v11.525h-6.031l-1.878-6.018zm10.51 6.02v-11.512l3.664-6.122 3.476 4.509c.695.902 1.821 1.322 2.94 1.093 1.117-.229 1.988-1.058 2.272-2.162l1.174-4.567 5.564 3.115c3.708 2.15 6.271 4.562 7.428 6.984l1.445 8.663h-27.963z"/></svg>