<?xml version="1.0" encoding="utf-8"?>
<!-- Generator: Adobe Illustrator 15.0.0, SVG Export Plug-In . SVG Version: 6.00 Build 0)  -->
<!DOCTYPE svg PUBLIC "-//W3C//DTD SVG 1.1//EN" "http://www.w3.org/Graphics/SVG/1.1/DTD/svg11.dtd">
<svg version="1.1" id="Layer_1" xmlns="http://www.w3.org/2000/svg" xmlns:xlink="http://www.w3.org/1999/xlink" x="0px" y="0px"
	 width="42px" height="42px" viewBox="0 0 42 42" enable-background="new 0 0 42 42" xml:space="preserve">
<polygon fill="#07738C" points="-355,589.629 -355.25,589.879 -354.551,590.078 "/>
<path fill="#DD4B39" d="M41.271,7.064v27.874c0,3.498-2.838,6.334-6.334,6.334H7.063c-3.499,0-6.335-2.836-6.335-6.334V7.064
	c0-3.499,2.836-6.335,6.335-6.335h27.874C38.434,0.729,41.271,3.565,41.271,7.064z"/>
<path fill="#8C251E" d="M32.879,15.371l-0.025,0.025l-4.43-4.431l-0.742,0.742v4.849l-5.592-5.591l-0.732,0.176l-5.425,0.357
	l-2.495,0.396l-1.267,1.979l0.752,4.237l3.405,1.703l0.079,0.396l0.594,2.692l-0.673,0.238l-2.534,0.395L12.21,24.09l-1.821,2.611
	l0.93,1.293L9.994,29.32l11.951,11.951h3.883h5.365h3.744c2.229,0,4.189-1.152,5.318-2.895c0.641-0.99,1.016-2.172,1.016-3.439
	v-1.875v-0.051v-0.898v-1.967v-6.334v-0.051L32.879,15.371z"/>
<g>
	<path fill="#FFFFFF" d="M22.09,10.965h-6.215c-2.785,0-5.406,2.111-5.406,4.556c0,2.499,1.899,4.518,4.735,4.518l0.574-0.019
		c-0.182,0.352-0.315,0.748-0.315,1.162c0,0.695,0.374,1.258,0.846,1.717l-1.079,0.012c-3.451,0-6.107,2.197-6.107,4.477
		c0,2.246,2.914,3.648,6.364,3.648c3.933,0,6.108-2.23,6.108-4.477c0-1.799-0.531-2.879-2.175-4.041
		c-0.559-0.398-1.635-1.365-1.635-1.934c0-0.667,0.189-0.994,1.195-1.777c1.026-0.803,1.754-1.935,1.754-3.246
		c0-1.563-0.696-3.089-2.004-3.59h1.969L22.09,10.965z M19.921,26.172c0.049,0.207,0.076,0.42,0.076,0.643
		c0,1.813-1.169,3.23-4.524,3.23c-2.385,0-4.106-1.51-4.106-3.324c0-1.777,2.137-3.256,4.521-3.23
		c0.557,0.006,1.078,0.094,1.549,0.246C18.729,24.637,19.66,25.145,19.921,26.172z M16.101,19.404
		c-1.603-0.046-3.125-1.792-3.4-3.895c-0.275-2.104,0.797-3.713,2.398-3.665c1.601,0.047,3.123,1.735,3.398,3.837
		C18.775,17.786,17.7,19.452,16.101,19.404z"/>
	<polygon fill="#FFFFFF" points="28.424,15.371 28.424,10.965 26.938,10.965 26.938,15.371 22.486,15.371 22.486,16.855 
		26.938,16.855 26.938,21.358 28.424,21.358 28.424,16.855 32.877,16.855 32.877,15.371 	"/>
</g>
</svg>
