<?xml version="1.0" encoding="utf-8"?>
<!-- Generator: Adobe Illustrator 15.0.0, SVG Export Plug-In . SVG Version: 6.00 Build 0)  -->
<!DOCTYPE svg PUBLIC "-//W3C//DTD SVG 1.1//EN" "http://www.w3.org/Graphics/SVG/1.1/DTD/svg11.dtd">
<svg version="1.1" id="Layer_1" xmlns="http://www.w3.org/2000/svg" xmlns:xlink="http://www.w3.org/1999/xlink" x="0px" y="0px"
	 width="42px" height="42px" viewBox="0 0 42 42" enable-background="new 0 0 42 42" xml:space="preserve">
<polygon display="none" fill="#07738C" points="-17.193,77.478 -17.212,77.496 -17.16,77.512 "/>
<path display="none" fill="#DD4B39" d="M12.504,33.818v2.089c0,0.263-0.212,0.475-0.474,0.475H9.94
	c-0.262,0-0.475-0.212-0.475-0.475v-2.089c0-0.262,0.213-0.475,0.475-0.475h2.09C12.292,33.344,12.504,33.557,12.504,33.818z"/>
<path display="none" fill="#8C251E" d="M11.875,34.441l-0.002,0.001l-0.331-0.331l-0.056,0.056v0.362l-0.419-0.418l-0.056,0.013
	l-0.406,0.026l-0.187,0.03l-0.096,0.148l0.057,0.317l0.255,0.128l0.007,0.029l0.044,0.201l-0.051,0.019l-0.189,0.029l-0.119,0.042
	L10.19,35.29l0.069,0.097l-0.1,0.1l0.896,0.896h0.291h0.401h0.281c0.166,0,0.313-0.086,0.398-0.217
	c0.048-0.074,0.075-0.162,0.075-0.258v-0.141v-0.004v-0.067v-0.146v-0.476V35.07L11.875,34.441z"/>
<g display="none">
	<path display="inline" fill="#FFFFFF" d="M11.067,34.111h-0.466c-0.209,0-0.405,0.158-0.405,0.341c0,0.188,0.142,0.339,0.354,0.339
		l0.043-0.002c-0.014,0.027-0.023,0.057-0.023,0.087c0,0.053,0.028,0.095,0.063,0.129l-0.081,0.001
		c-0.259,0-0.458,0.165-0.458,0.336c0,0.168,0.219,0.273,0.478,0.273c0.295,0,0.457-0.167,0.457-0.336
		c0-0.135-0.039-0.216-0.162-0.303c-0.042-0.03-0.123-0.103-0.123-0.145c0-0.05,0.015-0.075,0.09-0.134
		c0.077-0.06,0.132-0.145,0.132-0.243c0-0.117-0.053-0.231-0.15-0.269h0.147L11.067,34.111z M10.904,35.251
		c0.004,0.015,0.006,0.031,0.006,0.048c0,0.136-0.088,0.242-0.339,0.242c-0.179,0-0.308-0.113-0.308-0.249
		c0-0.134,0.16-0.244,0.339-0.242c0.041,0,0.08,0.007,0.115,0.019C10.815,35.136,10.885,35.174,10.904,35.251z M10.618,34.743
		c-0.12-0.003-0.234-0.134-0.255-0.292c-0.021-0.157,0.06-0.278,0.18-0.274s0.234,0.13,0.255,0.287
		C10.818,34.622,10.738,34.747,10.618,34.743z"/>
	<polygon display="inline" fill="#FFFFFF" points="11.542,34.44 11.542,34.111 11.431,34.111 11.431,34.44 11.097,34.44 
		11.097,34.552 11.431,34.552 11.431,34.89 11.542,34.89 11.542,34.552 11.875,34.552 11.875,34.44 	"/>
</g>
<path display="none" fill="#0274B3" d="M41,34.376c0,3.311-2.685,5.995-5.995,5.995H8.625c-3.312,0-5.996-2.685-5.996-5.995V7.996
	C2.629,4.685,5.313,2,8.625,2h26.38C38.315,2,41,4.685,41,7.996V34.376z"/>
<polygon display="none" fill="#FFFFFF" points="-17.907,67.746 -17.906,67.746 -17.907,67.746 "/>
<path display="none" fill="#0A5272" d="M41,34.376v-6.164l-9.486-9.485l-3.524,3.525l-4.821-4.821l-0.724,0.723l-7.23-7.23
	l-3.854,3.855l3.441,3.44l-2.386,2.386l1.88,1.881v6.534l-0.263-0.264l-3.174,3.174l8.441,8.441h15.705
	C38.315,40.371,41,37.687,41,34.376z"/>
<g display="none">
	<rect x="10.857" y="17.431" display="inline" fill="#FFFFFF" width="4.819" height="14.5"/>
	<path display="inline" fill="#FFFFFF" d="M13.268,15.45h-0.032c-1.616,0-2.662-1.113-2.662-2.504c0-1.423,1.078-2.505,2.726-2.505
		c1.649,0,2.663,1.082,2.695,2.505C15.994,14.337,14.947,15.45,13.268,15.45z"/>
	<path display="inline" fill="#FFFFFF" d="M33.056,31.931h-4.819v-7.759c0-1.948-0.697-3.278-2.441-3.278
		c-1.331,0-2.124,0.896-2.473,1.763c-0.128,0.31-0.158,0.742-0.158,1.176v8.098h-4.819c0,0,0.063-13.141,0-14.499h4.819v2.053
		c0.641-0.988,1.785-2.395,4.343-2.395c3.171,0,5.549,2.073,5.549,6.526V31.931L33.056,31.931L33.056,31.931z"/>
</g>
<polygon fill="#FFFFFF" points="-20.606,70.5 -20.605,70.5 -20.606,70.499 "/>
<g>
	<path fill="#0274B3" d="M40.947,34.747c0,3.446-2.793,6.242-6.242,6.242H7.242C3.795,40.989,1,38.193,1,34.747V7.284
		c0-3.447,2.795-6.242,6.242-6.242h27.463c3.449,0,6.242,2.795,6.242,6.242V34.747z"/>
	<path fill="#0A5272" d="M40.947,34.747v-6.416l-9.875-9.876l-3.67,3.671l-5.02-5.02l-0.752,0.752l-7.528-7.527l-4.013,4.013
		l3.583,3.583l-2.484,2.484l1.958,1.958v6.801l-0.274-0.272L9.568,32.2l8.788,8.789h16.349
		C38.154,40.989,40.947,38.193,40.947,34.747z"/>
	<g>
		<rect x="9.567" y="17.106" fill="#FFFFFF" width="5.017" height="15.094"/>
		<path fill="#FFFFFF" d="M12.076,15.044h-0.035c-1.683,0-2.771-1.159-2.771-2.607c0-1.481,1.123-2.608,2.839-2.608
			c1.716,0,2.772,1.126,2.806,2.608C14.915,13.885,13.826,15.044,12.076,15.044z"/>
		<path fill="#FFFFFF" d="M32.678,32.2H27.66v-8.076c0-2.027-0.727-3.414-2.541-3.414c-1.389,0-2.213,0.934-2.574,1.835
			c-0.135,0.323-0.164,0.772-0.164,1.224V32.2h-5.02c0,0,0.066-13.68,0-15.095h5.02v2.138c0.666-1.028,1.857-2.493,4.52-2.493
			c3.301,0,5.777,2.159,5.777,6.793V32.2L32.678,32.2L32.678,32.2z"/>
	</g>
</g>
</svg>
