<?xml version="1.0" encoding="utf-8"?>
<!-- Generator: Adobe Illustrator 17.0.0, SVG Export Plug-In . SVG Version: 6.00 Build 0)  -->
<!DOCTYPE svg PUBLIC "-//W3C//DTD SVG 1.1//EN" "http://www.w3.org/Graphics/SVG/1.1/DTD/svg11.dtd">
<svg version="1.1" id="Layer_1" xmlns="http://www.w3.org/2000/svg" xmlns:xlink="http://www.w3.org/1999/xlink" x="0px" y="0px"
	 width="120px" height="120px" viewBox="0 0 120 120" enable-background="new 0 0 120 120" xml:space="preserve">
<path id="path1901" fill="#FFFFFF" d="M51.164,81.418c0,0-3.274,1.904,2.33,2.548c6.788,0.774,10.258,0.663,17.739-0.753
	c0,0,1.967,1.233,4.714,2.301C59.176,92.702,37.991,85.099,51.164,81.418"/>
<path id="path1903" fill="#FFFFFF" d="M49.114,72.038c0,0-3.672,2.718,1.936,3.298c7.252,0.748,12.979,0.81,22.888-1.099
	c0,0,1.371,1.39,3.526,2.15C57.188,82.316,34.603,76.855,49.114,72.038"/>
<path id="path1905" fill="#FFFFFF" d="M66.39,56.128c4.132,4.758-1.086,9.039-1.086,9.039s10.492-5.417,5.674-12.2
	c-4.501-6.325-7.952-9.468,10.732-20.304C81.71,32.663,52.383,39.988,66.39,56.128"/>
<path id="path1907" fill="#FFFFFF" d="M88.57,88.356c0,0,2.423,1.996-2.668,3.54c-9.68,2.932-40.29,3.818-48.793,0.116
	c-3.057-1.33,2.675-3.175,4.479-3.562c1.88-0.408,2.955-0.332,2.955-0.332c-3.399-2.394-21.972,4.702-9.434,6.735
	C69.302,100.398,97.44,92.356,88.57,88.356"/>
<path id="path1909" fill="#FFFFFF" d="M52.738,62.32c0,0-15.57,3.698-5.514,5.041c4.246,0.568,12.711,0.44,20.595-0.22
	c6.444-0.544,12.913-1.699,12.913-1.699s-2.272,0.973-3.916,2.095c-15.811,4.159-46.356,2.224-37.562-2.03
	C46.691,61.913,52.738,62.32,52.738,62.32"/>
<path id="path1911" fill="#FFFFFF" d="M80.669,77.933c16.073-8.352,8.641-16.378,3.454-15.297c-1.271,0.265-1.838,0.494-1.838,0.494
	s0.472-0.739,1.374-1.059c10.261-3.608,18.153,10.64-3.313,16.283C80.345,78.354,80.594,78.132,80.669,77.933"/>
<path id="path1913" fill="#FFFFFF" d="M70.978,15.166c0,0,8.901,8.904-8.443,22.597c-13.908,10.983-3.172,17.246-0.006,24.401
	c-8.118-7.325-14.076-13.773-10.079-19.774C58.318,33.581,74.569,29.31,70.978,15.166"/>
<path id="path1915" fill="#FFFFFF" d="M54.317,100.565c15.428,0.987,39.119-0.548,39.68-7.848c0,0-1.079,2.767-12.75,4.965
	c-13.168,2.478-29.409,2.189-39.041,0.6C42.206,98.282,44.177,99.915,54.317,100.565"/>
</svg>
