<?xml version="1.0" encoding="utf-8"?>
<!-- Generator: Adobe Illustrator 17.0.0, SVG Export Plug-In . SVG Version: 6.00 Build 0)  -->
<!DOCTYPE svg PUBLIC "-//W3C//DTD SVG 1.1//EN" "http://www.w3.org/Graphics/SVG/1.1/DTD/svg11.dtd">
<svg version="1.1" id="Layer_1" xmlns="http://www.w3.org/2000/svg" xmlns:xlink="http://www.w3.org/1999/xlink" x="0px" y="0px"
	 width="48px" height="48px" viewBox="0 0 48 48" enable-background="new 0 0 48 48" xml:space="preserve">
<g>
	<path fill="#ECF0F1" d="M13.822,27.442c-0.466-1.507-0.621-3.135-0.372-4.801c0.102-0.677,0.27-1.326,0.486-1.951
		c-0.013-0.008-0.025-0.004-0.041-0.008l-6.879-2.992c-0.466,1.216-0.809,2.502-1.009,3.842c-0.449,3.02-0.135,5.972,0.792,8.674
		l7.001-2.759C13.81,27.442,13.814,27.446,13.822,27.442L13.822,27.442z M13.822,27.442"/>
	<path fill="#F26A24" d="M14.598,19.171c1.09-2.058,2.8-3.699,4.853-4.699c-0.004-0.013-0.011-0.021-0.016-0.029l-2.752-6.984
		c-3.878,1.743-7.099,4.8-9.006,8.695l6.883,2.992C14.577,19.155,14.585,19.163,14.598,19.171L14.598,19.171z M14.598,19.171"/>
	<path fill="#F26A24" d="M19.125,33.848c-2.058-1.086-3.699-2.797-4.699-4.855c-0.004,0.004-0.008,0.008-0.013,0.008l-7.001,2.76
		c1.743,3.878,4.8,7.099,8.695,9.006l2.988-6.879C19.104,33.872,19.117,33.863,19.125,33.848L19.125,33.848z M19.125,33.848"/>
	<path fill="#ECF0F1" d="M20.999,13.868c1.51-0.466,3.139-0.621,4.804-0.372c0.678,0.102,1.327,0.27,1.948,0.482
		c0.004,0,0.004-0.004,0.004-0.008l3-6.907c-1.217-0.466-2.499-0.809-3.842-1.008c-3.017-0.454-5.973-0.135-8.675,0.792l2.756,6.984
		C20.999,13.843,20.995,13.856,20.999,13.868L20.999,13.868z M20.999,13.868"/>
	<path fill="#F26A24" d="M29.281,14.648c2.054,1.09,3.695,2.8,4.696,4.858c0.016-0.008,0.028-0.024,0.045-0.028l6.965-2.748
		c-1.743-3.878-4.801-7.099-8.696-9.006l-3,6.911C29.285,14.64,29.281,14.644,29.281,14.648L29.281,14.648z M29.281,14.648"/>
	<path fill="#ECF0F1" d="M27.396,34.623c-1.511,0.465-3.135,0.621-4.801,0.375c-0.677-0.101-1.326-0.273-1.951-0.489
		c-0.008,0.016-0.004,0.028-0.013,0.044l-2.988,6.88c1.216,0.461,2.502,0.804,3.842,1.003c3.02,0.454,5.976,0.139,8.674-0.791
		l-2.763-7.005C27.396,34.636,27.396,34.627,27.396,34.623L27.396,34.623z M27.396,34.623"/>
	<path fill="#ECF0F1" d="M41.599,18.285l-6.96,2.748c-0.021,0.008-0.042,0.004-0.062,0.013c0.465,1.506,0.625,3.14,0.375,4.804
		c-0.101,0.678-0.27,1.327-0.486,1.952c0.008,0.003,0.017,0,0.025,0.003l6.896,2.997c0.461-1.216,0.808-2.499,1.007-3.842
		C42.844,23.943,42.529,20.988,41.599,18.285L41.599,18.285z M41.599,18.285"/>
	<path fill="#F26A24" d="M33.801,29.324c-1.09,2.057-2.797,3.694-4.85,4.695c0,0.004,0,0.004,0,0.004l2.764,7.009
		c3.878-1.743,7.099-4.797,9.006-8.696l-6.9-2.996C33.813,29.336,33.81,29.328,33.801,29.324L33.801,29.324z M33.801,29.324"/>
	<path fill="#F26A24" d="M28.951,34.019c-0.502,0.245-1.02,0.441-1.555,0.604c0,0.004,0,0.013,0,0.017l2.763,7.005
		c0.527-0.18,1.045-0.385,1.556-0.612l-2.764-7.009C28.951,34.023,28.951,34.023,28.951,34.019L28.951,34.019z M28.951,34.019"/>
	<path fill="#F26A24" d="M19.455,14.473c0.494-0.246,1.013-0.437,1.544-0.604c-0.004-0.013,0-0.025-0.004-0.038l-2.756-6.984
		c-0.527,0.18-1.045,0.388-1.555,0.612l2.756,6.984C19.443,14.456,19.451,14.46,19.455,14.473L19.455,14.473z M19.455,14.473"/>
	<path fill="#F26A24" d="M34.466,27.802c-0.183,0.53-0.408,1.037-0.665,1.523c0.008,0.003,0.012,0.011,0.02,0.016l6.9,2.996
		c0.245-0.497,0.465-1.007,0.662-1.534l-6.896-2.997C34.479,27.802,34.474,27.805,34.466,27.802L34.466,27.802z M34.466,27.802"/>
	<path fill="#F26A24" d="M13.936,20.69c0.184-0.531,0.409-1.033,0.662-1.519c-0.013-0.008-0.021-0.021-0.033-0.025l-6.886-2.992
		c-0.241,0.499-0.462,1.013-0.662,1.535l6.883,2.992C13.911,20.686,13.924,20.681,13.936,20.69L13.936,20.69z M13.936,20.69"/>
	<path fill="#F26A24" d="M14.426,28.993c-0.241-0.497-0.437-1.016-0.604-1.551c-0.008,0.004-0.013,0-0.021,0.004L6.8,30.205
		c0.184,0.531,0.388,1.049,0.617,1.556l6.997-2.76C14.418,29.002,14.422,28.997,14.426,28.993L14.426,28.993z M14.426,28.993"/>
	<path fill="#F26A24" d="M33.977,19.506c0.24,0.494,0.437,1.009,0.6,1.539c0.02-0.008,0.041-0.004,0.057-0.013l6.965-2.743
		c-0.18-0.531-0.388-1.049-0.612-1.559l-6.965,2.748C34.005,19.482,33.993,19.497,33.977,19.506L33.977,19.506z M33.977,19.506"/>
	<path fill="#F26A24" d="M20.644,34.509c-0.531-0.18-1.033-0.404-1.519-0.662c-0.004,0.016-0.021,0.024-0.025,0.041l-2.992,6.879
		c0.498,0.245,1.013,0.465,1.535,0.662l2.992-6.876C20.639,34.537,20.635,34.525,20.644,34.509L20.644,34.509z M20.644,34.509"/>
	<path fill="#F26A24" d="M27.751,13.982c0.534,0.184,1.041,0.409,1.53,0.666c0-0.004,0.004-0.008,0.008-0.013l3-6.911
		c-0.497-0.246-1.007-0.466-1.534-0.662l-3,6.907C27.755,13.974,27.755,13.978,27.751,13.982L27.751,13.982z M27.751,13.982"/>
	<path fill="#FFFFFF" d="M45.101,22.576c-0.461,0-0.837-0.376-0.837-0.837c0-11.121-2.87-17.559-17.553-17.559
		c-0.466,0-0.837-0.375-0.837-0.837c0-0.461,0.371-0.837,0.837-0.837c16.011,0,19.228,7.361,19.228,19.233
		C45.938,22.2,45.563,22.576,45.101,22.576L45.101,22.576z M45.101,22.576"/>
	<path fill="#FFFFFF" d="M3.297,22.576c-0.461,0-0.837-0.376-0.837-0.837c0-11.872,3.218-19.233,19.233-19.233
		c0.461,0,0.837,0.376,0.837,0.837c0,0.462-0.376,0.837-0.837,0.837c-14.685,0-17.559,6.438-17.559,17.559
		C4.134,22.2,3.759,22.576,3.297,22.576L3.297,22.576z M3.297,22.576"/>
	<path fill="#FFFFFF" d="M21.693,45.984c-16.015,0-19.233-7.356-19.233-19.228c0-0.466,0.376-0.837,0.837-0.837
		c0.462,0,0.837,0.371,0.837,0.837c0,11.116,2.874,17.553,17.559,17.553c0.461,0,0.837,0.376,0.837,0.837
		C22.53,45.609,22.154,45.984,21.693,45.984L21.693,45.984z M21.693,45.984"/>
	<path fill="#FFFFFF" d="M31.613,45.984c-0.466,0-0.837-0.375-0.837-0.837c0-0.461,0.371-0.837,0.837-0.837
		c14.684,0,11.365-7.414,12.65-17.553c0.059-0.462,0.376-0.837,0.837-0.837c0.462,0,0.881,0.373,0.837,0.837
		C44.817,38.575,47.624,45.984,31.613,45.984L31.613,45.984z M31.613,45.984"/>
	<path fill="#474B55" d="M24.199,6.687c-1.845,0-3.343-1.498-3.343-3.343C20.856,1.499,22.354,0,24.199,0
		c1.846,0,3.343,1.499,3.343,3.343C27.542,5.189,26.045,6.687,24.199,6.687L24.199,6.687z M24.199,1.674
		c-0.923,0-1.669,0.746-1.669,1.669c0,0.923,0.746,1.674,1.669,1.674c0.923,0,1.674-0.751,1.674-1.674
		C25.873,2.42,25.122,1.674,24.199,1.674L24.199,1.674z M24.199,1.674"/>
	<path fill="#474B55" d="M24.391,48.05c-1.845,0-3.343-1.498-3.343-3.343c0-1.845,1.499-3.343,3.343-3.343
		c1.846,0,3.343,1.499,3.343,3.343C27.735,46.553,26.237,48.05,24.391,48.05L24.391,48.05z M24.391,43.038
		c-0.923,0-1.669,0.746-1.669,1.669s0.746,1.674,1.669,1.674c0.923,0,1.674-0.751,1.674-1.674S25.314,43.038,24.391,43.038
		L24.391,43.038z M24.391,43.038"/>
	<path fill="#474B55" d="M45.101,27.589c-1.845,0-3.343-1.498-3.343-3.343c0-1.845,1.499-3.343,3.343-3.343
		c1.846,0,3.343,1.499,3.343,3.343C48.444,26.091,46.947,27.589,45.101,27.589L45.101,27.589z M45.101,22.576
		c-0.923,0-1.669,0.746-1.669,1.669c0,0.923,0.746,1.674,1.669,1.674c0.923,0,1.674-0.751,1.674-1.674
		C46.775,23.322,46.024,22.576,45.101,22.576L45.101,22.576z M45.101,22.576"/>
	<path fill="#474B55" d="M3.297,27.589c-1.845,0-3.343-1.498-3.343-3.343c0-1.845,1.499-3.343,3.343-3.343
		c1.846,0,3.343,1.499,3.343,3.343C6.64,26.091,5.143,27.589,3.297,27.589L3.297,27.589z M3.297,22.576
		c-0.923,0-1.669,0.746-1.669,1.669c0,0.923,0.746,1.674,1.669,1.674c0.923,0,1.674-0.751,1.674-1.674
		C4.971,23.322,4.22,22.576,3.297,22.576L3.297,22.576z M3.297,22.576"/>
</g>
</svg>
