<?xml version="1.0" encoding="utf-8"?>
<!-- Generator: Adobe Illustrator 17.0.0, SVG Export Plug-In . SVG Version: 6.00 Build 0)  -->
<!DOCTYPE svg PUBLIC "-//W3C//DTD SVG 1.1//EN" "http://www.w3.org/Graphics/SVG/1.1/DTD/svg11.dtd">
<svg version="1.1" id="Слой_1" xmlns="http://www.w3.org/2000/svg" xmlns:xlink="http://www.w3.org/1999/xlink" x="0px" y="0px"
	 width="32px" height="32px" viewBox="0 0 32 32" enable-background="new 0 0 32 32" xml:space="preserve">
<circle fill="#020202" cx="16" cy="16" r="15.5"/>
<g>
	<path fill="#E3D34C" d="M16.325,19.25L16.325,19.25c-3.175,0-5.725-2.575-5.725-5.725V4.35h11.475v9.175
		C22.05,16.675,19.475,19.25,16.325,19.25z"/>
	<g>
		<path fill="#FFFFFF" d="M11.95,13.525V4.35h-1.375v9.175c0,3.15,2.575,5.725,5.75,5.725c0.225,0,0.45-0.025,0.7-0.05
			C14.15,18.875,11.95,16.45,11.95,13.525z"/>
	</g>
	<path fill="#E3D34C" d="M18.325,18.875l-0.175,0.2c-1.2,1.375-1.125,3.45,0.175,4.75l0,0h-4.6l0,0c1.3-1.3,1.425-3.375,0.275-4.85
		l-0.275-0.35"/>
	<g>
		<path fill="#FFFFFF" d="M14.025,19c1.15,1.45,1.025,3.525-0.275,4.85h1.15c1.3-1.3,1.425-3.375,0.275-4.85l-0.225-0.3l-1.2-0.075
			L14.025,19z"/>
	</g>
	<polyline fill="#288CA3" points="10.3,31.15 10.3,23.825 21.75,23.825 21.75,31.15 	"/>
	<g>
		<rect x="10.3" y="23.825" fill="#FFFFFF" width="1.375" height="7.325"/>
	</g>
	<path fill="#62355C" d="M12.875,9.275c0.2,0,0.35-0.15,0.35-0.35v-2.3c0-0.2-0.15-0.35-0.35-0.35s-0.35,0.15-0.35,0.35v2.3
		C12.525,9.125,12.675,9.275,12.875,9.275z"/>
	<path fill="#62355C" d="M16.65,16.95c0-0.2-0.15-0.35-0.35-0.35c-1.7,0-3.1-1.4-3.1-3.1v-2.3c0-0.2-0.15-0.35-0.35-0.35
		S12.5,11,12.5,11.2v2.3c0,2.075,1.7,3.775,3.775,3.775C16.5,17.3,16.65,17.15,16.65,16.95z"/>
	<path fill="#F89406" d="M10.3,23.5c-0.2,0-0.35,0.15-0.35,0.35v6.975H8c-0.2,0-0.35,0.15-0.35,0.35s0.15,0.35,0.35,0.35h16.05
		c0.2,0,0.35-0.15,0.35-0.35s-0.15-0.35-0.35-0.35H22.1v-7c0-0.2-0.15-0.35-0.35-0.35h-3.275C17.4,22.3,17.375,20.5,18.4,19.3
		l0.125-0.15c2.15-0.85,3.725-2.9,3.85-5.325h0.3c1.125,0,2.15-0.725,2.5-1.8l1.275-3.8c0.15-0.45,0.075-0.95-0.2-1.35
		c-0.275-0.4-0.725-0.625-1.2-0.625H22.4V4.3c0-0.2-0.15-0.35-0.35-0.35H10.575c-0.2,0-0.35,0.15-0.35,0.35v1.95h-2.65
		c-0.475,0-0.925,0.225-1.2,0.625c-0.275,0.4-0.35,0.875-0.2,1.35l1.275,3.8c0.35,1.075,1.375,1.8,2.5,1.8h0.3
		c0.125,2.2,1.425,4.075,3.25,5.05l0.25,0.3c1,1.275,0.925,3.1-0.175,4.275H10.3V23.5z M21.425,30.8h-10.8v-6.625H21.4V30.8H21.425z
		 M25.05,6.975c0.25,0,0.5,0.125,0.65,0.325s0.2,0.475,0.1,0.725l-1.275,3.8c-0.275,0.8-1,1.325-1.85,1.325h-0.3V6.975H25.05z
		 M8.1,11.85l-1.275-3.8c-0.075-0.25-0.05-0.5,0.1-0.725C7.075,7.125,7.325,7,7.575,7h2.65v6.2h-0.3
		C9.1,13.175,8.35,12.625,8.1,11.85z M10.925,13.525V4.7H21.7v8.825c0,2.975-2.425,5.4-5.4,5.4S10.925,16.5,10.925,13.525z
		 M14.675,19.375c0.525,0.15,1.075,0.225,1.65,0.225c0.4,0,0.775-0.05,1.125-0.1c-0.7,1.25-0.65,2.8,0.15,4h-3.15
		C15.3,22.275,15.375,20.675,14.675,19.375z"/>
</g>
</svg>
