<?xml version="1.0" encoding="utf-8"?>
<!-- Generator: Adobe Illustrator 17.0.0, SVG Export Plug-In . SVG Version: 6.00 Build 0)  -->
<!DOCTYPE svg PUBLIC "-//W3C//DTD SVG 1.1//EN" "http://www.w3.org/Graphics/SVG/1.1/DTD/svg11.dtd">
<svg version="1.1" id="Layer_1" xmlns="http://www.w3.org/2000/svg" xmlns:xlink="http://www.w3.org/1999/xlink" x="0px" y="0px"
	 width="32px" height="32px" viewBox="0 0 32 32" enable-background="new 0 0 32 32" xml:space="preserve">
<circle fill="#070707" cx="16" cy="16" r="14.5"/>
<g>
	<defs>
		<circle id="SVGID_1_" cx="16" cy="16" r="14.5"/>
	</defs>
	<clipPath id="SVGID_2_">
		<use xlink:href="#SVGID_1_"  overflow="visible"/>
	</clipPath>
	<g clip-path="url(#SVGID_2_)">
		<polygon fill="#15BCB1" points="6.037,6.166 26.264,6.166 26.264,33.136 6.037,32.747 		"/>
		<polygon fill="#FFFFFF" points="7.463,7.073 24.579,7.073 24.579,33.103 7.463,32.774 		"/>
		<path fill="#F7A80E" d="M12.196,5.993c0,0,0.173-0.562,0.605-0.562s6.872,0,6.872,0s0.216,0.216,0.259,0.562H12.196z"/>
		<rect x="12.196" y="6.382" fill="#F7A80E" width="7.737" height="0.692"/>
		<rect x="11.98" y="11.784" fill="#FFBB1C" width="8.212" height="2.939"/>
		<rect x="11.98" y="16.02" fill="#21D0C3" width="8.212" height="3.112"/>
		<circle fill="#FDBA1C" cx="16.027" cy="22.247" r="2.158"/>
		<path fill="#F7A80E" d="M16.021,3.011c-1.664,0-1.145,2.42-1.145,2.42h2.464C17.339,5.431,17.685,3.011,16.021,3.011z
			 M15.978,4.999c-0.418,0-0.756-0.339-0.756-0.756s0.339-0.756,0.756-0.756c0.418,0,0.756,0.339,0.756,0.756
			S16.395,4.999,15.978,4.999z"/>
		<rect x="10.424" y="9.494" fill="#BFBFBF" width="11.367" height="0.778"/>
		<rect x="12.542" y="12.39" fill="#FFFFFF" width="7.175" height="0.432"/>
		<rect x="12.542" y="13.168" fill="#FFFFFF" width="4.581" height="0.432"/>
		<rect x="12.542" y="16.798" fill="#FFFFFF" width="7.175" height="0.432"/>
		<rect x="12.542" y="17.576" fill="#FFFFFF" width="4.581" height="0.432"/>
		<rect x="9.387" y="25.918" fill="#21D0C3" width="3.587" height="2.55"/>
		<rect x="14.314" y="25.918" fill="#21D0C3" width="3.587" height="2.55"/>
		<rect x="19.241" y="25.918" fill="#21D0C3" width="3.587" height="2.55"/>
		<path fill="#FFFEFD" d="M16.708,22.141l-1.241-0.716c-0.038-0.022-0.085-0.022-0.123,0c-0.038,0.022-0.061,0.062-0.061,0.106
			v1.433c0,0.044,0.023,0.084,0.061,0.106c0.019,0.011,0.04,0.016,0.061,0.016c0.021,0,0.042-0.005,0.061-0.016l1.241-0.716
			c0.038-0.022,0.061-0.062,0.061-0.106C16.77,22.203,16.746,22.162,16.708,22.141z"/>
		<path fill="none" stroke="#15BDB2" stroke-miterlimit="10" d="M10.478,17.576"/>
	</g>
</g>
</svg>
