<?xml version="1.0" encoding="utf-8"?>
<!-- Generator: Adobe Illustrator 15.0.0, SVG Export Plug-In . SVG Version: 6.00 Build 0)  -->
<!DOCTYPE svg PUBLIC "-//W3C//DTD SVG 1.1//EN" "http://www.w3.org/Graphics/SVG/1.1/DTD/svg11.dtd">
<svg version="1.1" id="Layer_1" xmlns="http://www.w3.org/2000/svg" xmlns:xlink="http://www.w3.org/1999/xlink" x="0px" y="0px"
	 width="110px" height="110px" viewBox="0 0 110 110" enable-background="new 0 0 110 110" xml:space="preserve">
<g id="R-Multicolor" display="none">
	<circle display="inline" fill="#E04F5F" cx="55" cy="55" r="55"/>
	<g display="inline">
		<path fill="#FACB1B" d="M75,23L49.792,48.208C47.668,47.44,45.388,47,43,47c-11.046,0-20,8.954-20,20s8.954,20,20,20
			s20-8.954,20-20c0-2.389-0.439-4.668-1.208-6.792L63,59v-8h8v-8h8v-8h8V23H75z M47.595,76.204c-0.2,0.955-0.869,1.743-1.777,2.101
			c-3.631,1.422-7.918,0.666-10.853-2.27c-2.935-2.934-3.691-7.223-2.268-10.855c0.356-0.908,1.146-1.576,2.102-1.775
			s1.946,0.098,2.636,0.787l9.375,9.375C47.5,74.257,47.795,75.249,47.595,76.204z"/>
		<path fill="#FBE158" d="M87,23H75L49.792,48.208C47.668,47.44,45.388,47,43,47c-11.046,0-20,8.954-20,20
			c0,5.701,2.397,10.832,6.224,14.475l5.602-5.602c-2.809-2.93-3.526-7.124-2.128-10.693c0.356-0.908,1.146-1.576,2.102-1.775
			c0.956-0.199,1.946,0.098,2.636,0.787l4.536,4.537L87,23.698V23z"/>
		<path fill="#F3B607" d="M55,49c-0.552-0.552-0.552-1.448,0-2l22-22h4L57,49C56.447,49.552,55.553,49.552,55,49z"/>
	</g>
</g>
<g id="g3508">
	<circle id="circle" fill="#00ABF1" cx="54.793" cy="55.414" r="54.833"/>
	<path id="Retweet" fill="#FFFFFF" d="M27.057,85.425c-2.03,0-3.681-1.656-3.681-3.693V51.651L7.229,51.643L29.167,27.63
		l21.946,24.021H34.946v22.164h17.361l11.375,11.611L27.057,85.425L27.057,85.425z M105.806,61.157H89.654V31.068
		c0-2.036-1.651-3.693-3.681-3.693H49.355l11.368,11.61h17.358v22.164l-16.157,0.008l21.943,24.018L105.806,61.157L105.806,61.157z"
		/>
</g>
</svg>
