<?xml version="1.0" encoding="utf-8"?>
<!-- Generator: Adobe Illustrator 17.0.0, SVG Export Plug-In . SVG Version: 6.00 Build 0)  -->
<!DOCTYPE svg PUBLIC "-//W3C//DTD SVG 1.1//EN" "http://www.w3.org/Graphics/SVG/1.1/DTD/svg11.dtd">
<svg version="1.1" id="Layer_1" xmlns="http://www.w3.org/2000/svg" xmlns:xlink="http://www.w3.org/1999/xlink" x="0px" y="0px"
	 width="128px" height="128px" viewBox="0 0 128 128" enable-background="new 0 0 128 128" xml:space="preserve">
<path fill="none" stroke="#284E51" stroke-width="4" stroke-miterlimit="10" d="M102.078,86.177c0,0,4.762,2.381,0,6.061
	c-4.762,3.68-35.281,24.675-35.281,24.675s-4.762,2.597-9.307,0S23.29,91.589,23.29,91.589s-2.938-3.896,0-5.411"/>
<path fill="none" stroke="#284E51" stroke-width="4" stroke-miterlimit="10" d="M102.078,69.177c0,0,4.762,2.381,0,6.061
	c-4.762,3.68-35.281,24.675-35.281,24.675s-4.762,2.597-9.307,0S23.29,74.589,23.29,74.589s-2.938-3.896,0-5.411"/>
<path fill="none" stroke="#284E51" stroke-width="4" stroke-miterlimit="10" d="M102.078,52.177c0,0,4.762,2.381,0,6.061
	c-4.762,3.68-35.281,24.675-35.281,24.675s-4.762,2.597-9.307,0S23.29,57.589,23.29,57.589s-2.938-3.896,0-5.411"/>
<path fill="#45CCC7" stroke="#284E51" stroke-width="4" stroke-miterlimit="10" d="M23.29,35.177l34.416-17.749
	c0,0,3.68-2.381,8.658,0c4.978,2.381,35.714,17.749,35.714,17.749s4.762,2.381,0,6.061c-4.762,3.68-35.281,24.675-35.281,24.675
	s-4.762,2.597-9.307,0S23.29,40.589,23.29,40.589S20.352,36.693,23.29,35.177z"/>
</svg>
