<?xml version="1.0" encoding="utf-8"?>
<!-- Generator: Adobe Illustrator 17.0.0, SVG Export Plug-In . SVG Version: 6.00 Build 0)  -->
<!DOCTYPE svg PUBLIC "-//W3C//DTD SVG 1.1//EN" "http://www.w3.org/Graphics/SVG/1.1/DTD/svg11.dtd">
<svg version="1.1" id="Layer_1" xmlns="http://www.w3.org/2000/svg" xmlns:xlink="http://www.w3.org/1999/xlink" x="0px" y="0px"
	 width="600px" height="424.878px" viewBox="0 0 600 424.878" enable-background="new 0 0 600 424.878" xml:space="preserve">
<g>
	<g opacity="0.05">
		<path fill="#11191A" d="M520.561,375.53l-86.312-86.312h3.067c13.07,0,23.665-10.595,23.665-23.665v-3.702h-23.035V67.622
			c0-7.18-5.82-13-13-13h-90.622c-38.325-22.926-86.537-22.926-124.862,0h-85.97c-7.18,0-13,5.82-13,13v194.229H87.458v3.702
			c0,13.07,10.595,23.665,23.665,23.665h250.147l-0.027,0.027c-1.172,1.172-1.172,3.071,0,4.243l4.957,4.957
			c1.172,1.172,3.071,1.172,4.243,0l4.216-4.216l113.049,113.049c0,0,0,0,0,0l0.553,0.553c1.953,1.953,5.118,1.953,7.071,0
			l6.481-6.482c0.902,0.902,1.955,1.556,3.075,1.977c0.406,0.153,0.821,0.276,1.242,0.365c0.598,0.128,1.207,0.198,1.816,0.198
			c2.22,0,4.439-0.847,6.133-2.54c3.387-3.387,3.387-8.879,0-12.266l0,0l6.481-6.481
			C522.514,380.648,522.514,377.483,520.561,375.53z"/>
		<path fill="#11191A" d="M521.273,374.817l-86.312-86.312h3.067c13.07,0,23.665-10.595,23.665-23.665v-3.702h-23.035V66.909
			c0-7.18-5.82-13-13-13h-90.622c-38.325-22.926-86.537-22.926-124.862,0h-85.97c-7.18,0-13,5.82-13,13v194.229H88.171v3.702
			c0,13.07,10.595,23.665,23.665,23.665h250.147l-0.027,0.027c-1.172,1.172-1.172,3.071,0,4.243l4.957,4.957
			c1.172,1.172,3.071,1.172,4.243,0l4.216-4.216l113.049,113.049c0,0,0,0,0,0l0.553,0.553c1.953,1.953,5.118,1.953,7.071,0
			l6.482-6.482c0.902,0.902,1.955,1.556,3.075,1.977c0.406,0.153,0.821,0.276,1.242,0.365c0.598,0.128,1.207,0.198,1.816,0.198
			c2.22,0,4.439-0.847,6.133-2.54c3.387-3.387,3.387-8.879,0-12.266l0,0l6.481-6.481
			C523.226,379.936,523.226,376.77,521.273,374.817z"/>
		<path fill="#11191A" d="M521.986,374.105l-86.312-86.312h3.067c13.07,0,23.665-10.595,23.665-23.665v-3.702h-23.035V66.196
			c0-7.18-5.82-13-13-13H335.75c-38.325-22.926-86.537-22.926-124.862,0h-85.97c-7.18,0-13,5.82-13,13v194.229H88.884v3.702
			c0,13.07,10.595,23.665,23.665,23.665h250.148l-0.027,0.027c-1.172,1.172-1.172,3.071,0,4.243l4.957,4.957
			c1.172,1.172,3.071,1.172,4.243,0l4.216-4.216l113.049,113.049c0,0,0,0,0,0l0.553,0.553c1.953,1.953,5.118,1.953,7.071,0
			l6.482-6.481c0.902,0.902,1.955,1.556,3.075,1.977c0.407,0.153,0.821,0.276,1.242,0.365c0.598,0.128,1.207,0.198,1.816,0.198
			c2.22,0,4.439-0.847,6.133-2.54c3.387-3.387,3.387-8.879,0-12.266l0,0l6.481-6.481
			C523.939,379.223,523.939,376.057,521.986,374.105z"/>
		<path fill="#11191A" d="M522.699,373.392l-86.312-86.312h3.067c13.07,0,23.665-10.595,23.665-23.665v-3.702h-23.035V65.484
			c0-7.18-5.82-13-13-13h-90.622c-38.325-22.926-86.537-22.926-124.862,0h-85.97c-7.18,0-13,5.82-13,13v194.229H89.596v3.702
			c0,13.07,10.595,23.665,23.665,23.665h250.148l-0.027,0.027c-1.172,1.172-1.172,3.071,0,4.243l4.957,4.957
			c1.172,1.172,3.071,1.172,4.243,0l4.216-4.216l113.049,113.049c0,0,0,0,0,0l0.553,0.553c1.953,1.953,5.118,1.953,7.071,0
			l6.482-6.481c0.902,0.902,1.955,1.556,3.075,1.977c0.406,0.153,0.821,0.276,1.242,0.365c0.598,0.128,1.207,0.198,1.816,0.198
			c2.22,0,4.439-0.847,6.133-2.54c3.387-3.387,3.387-8.879,0-12.266l0,0l6.481-6.481
			C524.651,378.51,524.651,375.345,522.699,373.392z"/>
		<path fill="#11191A" d="M523.411,372.679L437.1,286.367h3.067c13.07,0,23.665-10.595,23.665-23.665V259h-23.035V64.771
			c0-7.18-5.82-13-13-13h-90.622c-38.325-22.926-86.537-22.926-124.862,0h-85.97c-7.18,0-13,5.82-13,13V259H90.309v3.702
			c0,13.07,10.595,23.665,23.665,23.665h250.148l-0.027,0.027c-1.172,1.172-1.172,3.071,0,4.243l4.957,4.957
			c1.172,1.172,3.071,1.172,4.243,0l4.216-4.216l113.049,113.049c0,0,0,0,0,0l0.553,0.553c1.953,1.953,5.118,1.953,7.071,0
			l6.482-6.481c0.902,0.902,1.955,1.556,3.075,1.977c0.406,0.153,0.821,0.276,1.242,0.365c0.598,0.128,1.207,0.198,1.816,0.198
			c2.22,0,4.439-0.847,6.133-2.54c3.387-3.387,3.387-8.879,0-12.266l0,0l6.481-6.481
			C525.364,377.798,525.364,374.632,523.411,372.679z"/>
		<path fill="#11191A" d="M524.124,371.967l-86.312-86.312h3.067c13.07,0,23.665-10.595,23.665-23.665v-3.702H441.51V64.059
			c0-7.18-5.82-13-13-13h-90.622c-38.325-22.926-86.537-22.926-124.862,0h-85.97c-7.18,0-13,5.82-13,13v194.229H91.021v3.702
			c0,13.07,10.595,23.665,23.665,23.665h250.148l-0.027,0.027c-1.172,1.172-1.172,3.071,0,4.243l4.957,4.957
			c1.172,1.172,3.071,1.172,4.243,0l4.216-4.216l113.049,113.049c0,0,0,0,0,0l0.553,0.553c1.953,1.953,5.118,1.953,7.071,0
			l6.482-6.481c0.902,0.902,1.955,1.556,3.075,1.977c0.406,0.153,0.821,0.276,1.242,0.365c0.598,0.128,1.207,0.198,1.816,0.198
			c2.22,0,4.439-0.847,6.133-2.54c3.387-3.387,3.387-8.879,0-12.266l0,0l6.481-6.481
			C526.077,377.085,526.077,373.919,524.124,371.967z"/>
		<path fill="#11191A" d="M524.837,371.254l-86.312-86.312h3.067c13.07,0,23.665-10.595,23.665-23.665v-3.702h-23.035V63.346
			c0-7.18-5.82-13-13-13h-90.622c-38.325-22.926-86.537-22.926-124.862,0h-85.97c-7.18,0-13,5.82-13,13v194.229H91.734v3.702
			c0,13.07,10.595,23.665,23.665,23.665h250.148l-0.027,0.027c-1.172,1.172-1.172,3.071,0,4.243l4.957,4.957
			c1.172,1.172,3.071,1.172,4.243,0l4.216-4.216l113.049,113.049c0,0,0,0,0,0l0.553,0.553c1.953,1.953,5.118,1.953,7.071,0
			l6.481-6.482c0.902,0.902,1.955,1.556,3.075,1.977c0.406,0.153,0.821,0.276,1.242,0.365c0.598,0.128,1.207,0.198,1.816,0.198
			c2.22,0,4.439-0.847,6.133-2.54c3.387-3.387,3.387-8.879,0-12.266l0,0l6.481-6.481
			C526.789,376.373,526.789,373.207,524.837,371.254z"/>
		<path fill="#11191A" d="M525.549,370.542l-86.312-86.312h3.067c13.07,0,23.665-10.595,23.665-23.665v-3.702h-23.035V62.633
			c0-7.18-5.82-13-13-13h-90.622c-38.325-22.926-86.537-22.926-124.862,0h-85.97c-7.18,0-13,5.82-13,13v194.229H92.447v3.702
			c0,13.07,10.595,23.665,23.665,23.665h250.147l-0.027,0.027c-1.172,1.172-1.172,3.071,0,4.243l4.957,4.957
			c1.172,1.172,3.071,1.172,4.243,0l4.216-4.216l113.049,113.049c0,0,0,0,0,0l0.553,0.553c1.953,1.953,5.118,1.953,7.071,0
			l6.481-6.482c0.902,0.902,1.955,1.556,3.075,1.977c0.406,0.153,0.821,0.276,1.242,0.365c0.598,0.128,1.207,0.198,1.816,0.198
			c2.22,0,4.439-0.847,6.133-2.54c3.387-3.387,3.387-8.879,0-12.266l0,0l6.481-6.481
			C527.502,375.66,527.502,372.494,525.549,370.542z"/>
		<path fill="#11191A" d="M526.262,369.829l-86.312-86.312h3.067c13.07,0,23.665-10.595,23.665-23.665v-3.702h-23.035V61.921
			c0-7.18-5.82-13-13-13h-90.622c-38.325-22.926-86.537-22.926-124.862,0h-85.97c-7.18,0-13,5.82-13,13V256.15H93.159v3.702
			c0,13.07,10.595,23.665,23.665,23.665h250.148l-0.027,0.027c-1.172,1.172-1.172,3.071,0,4.243l4.957,4.957
			c1.172,1.172,3.071,1.172,4.243,0l4.216-4.216l113.049,113.049c0,0,0,0,0,0l0.553,0.553c1.953,1.953,5.118,1.953,7.071,0
			l6.482-6.481c0.902,0.902,1.955,1.556,3.075,1.977c0.407,0.153,0.821,0.276,1.242,0.365c0.598,0.128,1.207,0.198,1.816,0.198
			c2.22,0,4.439-0.847,6.133-2.54c3.387-3.387,3.387-8.879,0-12.266l0,0l6.481-6.481
			C528.214,374.947,528.214,371.782,526.262,369.829z"/>
		<path fill="#11191A" d="M526.974,369.116l-86.312-86.312h3.067c13.07,0,23.665-10.595,23.665-23.665v-3.702H444.36V61.208
			c0-7.18-5.82-13-13-13h-90.622c-38.325-22.926-86.537-22.926-124.862,0h-85.97c-7.18,0-13,5.82-13,13v194.229H93.872v3.702
			c0,13.07,10.595,23.665,23.665,23.665h250.148l-0.027,0.027c-1.172,1.172-1.172,3.071,0,4.243l4.957,4.957
			c1.172,1.172,3.071,1.172,4.243,0l4.216-4.216l113.049,113.049c0,0,0,0,0,0l0.553,0.553c1.953,1.953,5.118,1.953,7.071,0
			l6.482-6.481c0.902,0.902,1.955,1.556,3.075,1.977c0.406,0.153,0.821,0.276,1.242,0.365c0.598,0.128,1.207,0.198,1.816,0.198
			c2.22,0,4.439-0.847,6.133-2.54c3.387-3.387,3.387-8.879,0-12.266l0,0l6.481-6.481
			C528.927,374.235,528.927,371.069,526.974,369.116z"/>
		<path fill="#11191A" d="M527.687,368.404l-86.312-86.312h3.067c13.07,0,23.665-10.595,23.665-23.665v-3.702h-23.035V60.496
			c0-7.18-5.82-13-13-13h-90.622c-38.325-22.926-86.537-22.926-124.862,0h-85.97c-7.18,0-13,5.82-13,13v194.229H94.584v3.702
			c0,13.07,10.595,23.665,23.665,23.665h250.148l-0.027,0.027c-1.172,1.172-1.172,3.071,0,4.243l4.957,4.957
			c1.172,1.172,3.071,1.172,4.243,0l4.216-4.216L494.835,400.15c0,0,0,0,0,0l0.553,0.553c1.953,1.953,5.118,1.953,7.071,0
			l6.482-6.481c0.902,0.902,1.955,1.556,3.075,1.977c0.406,0.153,0.821,0.276,1.242,0.365c0.598,0.128,1.207,0.198,1.816,0.198
			c2.22,0,4.439-0.847,6.133-2.54c3.387-3.387,3.387-8.879,0-12.266l0,0l6.481-6.481C529.64,373.522,529.64,370.356,527.687,368.404
			z"/>
		<path fill="#11191A" d="M528.4,367.691l-86.312-86.312h3.067c13.07,0,23.665-10.595,23.665-23.665v-3.702h-23.035V59.783
			c0-7.18-5.82-13-13-13h-90.622c-38.325-22.926-86.537-22.926-124.862,0h-85.97c-7.18,0-13,5.82-13,13v194.229H95.297v3.702
			c0,13.07,10.595,23.665,23.665,23.665H369.11l-0.027,0.027c-1.172,1.172-1.172,3.071,0,4.243l4.957,4.957
			c1.172,1.172,3.071,1.172,4.243,0l4.216-4.216l113.049,113.049c0,0,0,0,0,0l0.553,0.553c1.953,1.953,5.118,1.953,7.071,0
			l6.482-6.481c0.902,0.902,1.955,1.556,3.075,1.977c0.407,0.153,0.821,0.276,1.242,0.365c0.598,0.128,1.207,0.198,1.816,0.198
			c2.22,0,4.439-0.847,6.133-2.54c3.387-3.387,3.387-8.879,0-12.266l0,0l6.481-6.481C530.352,372.81,530.352,369.644,528.4,367.691z
			"/>
		<path fill="#11191A" d="M529.112,366.978l-86.312-86.312h3.067c13.07,0,23.665-10.595,23.665-23.665V253.3h-23.035V59.07
			c0-7.18-5.82-13-13-13h-90.622c-38.325-22.926-86.537-22.926-124.862,0h-85.97c-7.18,0-13,5.82-13,13V253.3H96.01v3.702
			c0,13.07,10.595,23.665,23.665,23.665h250.148l-0.027,0.027c-1.172,1.172-1.172,3.071,0,4.243l4.957,4.957
			c1.172,1.172,3.071,1.172,4.243,0l4.216-4.216L496.26,398.725c0,0,0,0,0,0l0.553,0.553c1.953,1.953,5.118,1.953,7.071,0
			l6.481-6.481c0.902,0.902,1.955,1.556,3.075,1.977c0.406,0.153,0.821,0.276,1.242,0.365c0.598,0.128,1.207,0.198,1.816,0.198
			c2.22,0,4.439-0.847,6.133-2.54c3.387-3.387,3.387-8.879,0-12.266l0,0l6.481-6.481
			C531.065,372.097,531.065,368.931,529.112,366.978z"/>
		<path fill="#11191A" d="M529.825,366.266l-86.312-86.312h3.067c13.07,0,23.665-10.595,23.665-23.665v-3.702h-23.035V58.358
			c0-7.18-5.82-13-13-13h-90.622c-38.325-22.926-86.537-22.926-124.862,0h-85.97c-7.18,0-13,5.82-13,13v194.229H96.722v3.702
			c0,13.07,10.595,23.665,23.665,23.665h250.148l-0.027,0.027c-1.172,1.172-1.172,3.071,0,4.243l4.957,4.957
			c1.172,1.172,3.071,1.172,4.243,0l4.216-4.216l113.049,113.049c0,0,0,0,0,0l0.553,0.553c1.953,1.953,5.118,1.953,7.071,0
			l6.481-6.481c0.902,0.902,1.955,1.556,3.075,1.977c0.406,0.153,0.821,0.276,1.242,0.365c0.598,0.128,1.207,0.198,1.816,0.198
			c2.22,0,4.439-0.847,6.133-2.54c3.387-3.387,3.387-8.879,0-12.266l0,0l6.481-6.481
			C531.778,371.384,531.778,368.219,529.825,366.266z"/>
		<path fill="#11191A" d="M530.537,365.553l-86.312-86.312h3.067c13.07,0,23.665-10.595,23.665-23.665v-3.702h-23.035V57.645
			c0-7.18-5.82-13-13-13h-90.622c-38.325-22.926-86.537-22.926-124.862,0h-85.97c-7.18,0-13,5.82-13,13v194.229H97.435v3.702
			c0,13.07,10.595,23.665,23.665,23.665h250.148l-0.027,0.027c-1.172,1.172-1.172,3.071,0,4.243l4.957,4.957
			c1.172,1.172,3.071,1.172,4.243,0l4.216-4.216L497.685,397.3c0,0,0,0,0,0l0.553,0.553c1.953,1.953,5.118,1.953,7.071,0
			l6.482-6.481c0.902,0.902,1.955,1.556,3.075,1.977c0.406,0.153,0.821,0.276,1.242,0.365c0.598,0.128,1.207,0.198,1.816,0.198
			c2.22,0,4.439-0.847,6.133-2.54c3.387-3.387,3.387-8.879,0-12.266l0,0l6.481-6.481C532.49,370.672,532.49,367.506,530.537,365.553
			z"/>
		<path fill="#11191A" d="M531.25,364.841l-86.312-86.312h3.067c13.07,0,23.665-10.595,23.665-23.665v-3.702h-23.035V56.933
			c0-7.18-5.82-13-13-13h-90.622c-38.325-22.926-86.537-22.926-124.862,0h-85.97c-7.18,0-13,5.82-13,13v194.229H98.147v3.702
			c0,13.07,10.595,23.665,23.665,23.665H371.96l-0.027,0.027c-1.172,1.172-1.172,3.071,0,4.243l4.957,4.957
			c1.172,1.172,3.071,1.172,4.243,0l4.216-4.216l113.049,113.049c0,0,0,0,0,0l0.553,0.553c1.953,1.953,5.118,1.953,7.071,0
			l6.482-6.481c0.902,0.902,1.955,1.556,3.075,1.977c0.406,0.153,0.821,0.276,1.242,0.365c0.598,0.128,1.207,0.198,1.816,0.198
			c2.22,0,4.439-0.847,6.133-2.54c3.387-3.387,3.387-8.879,0-12.266l0,0l6.481-6.481
			C533.203,369.959,533.203,366.793,531.25,364.841z"/>
		<path fill="#11191A" d="M531.963,364.128l-86.312-86.312h3.067c13.07,0,23.665-10.595,23.665-23.665v-3.702h-23.035V56.22
			c0-7.18-5.82-13-13-13h-90.622c-38.325-22.926-86.537-22.926-124.862,0h-85.97c-7.18,0-13,5.82-13,13v194.229H98.86v3.702
			c0,13.07,10.595,23.665,23.665,23.665h250.148l-0.027,0.027c-1.172,1.172-1.172,3.071,0,4.243l4.957,4.957
			c1.172,1.172,3.071,1.172,4.243,0l4.216-4.216L499.11,395.875c0,0,0,0,0,0l0.553,0.553c1.953,1.953,5.118,1.953,7.071,0
			l6.481-6.481c0.902,0.902,1.955,1.556,3.075,1.977c0.407,0.153,0.821,0.276,1.242,0.365c0.598,0.128,1.207,0.198,1.816,0.198
			c2.22,0,4.439-0.847,6.133-2.54c3.387-3.387,3.387-8.879,0-12.266l0,0l6.481-6.481
			C533.915,369.247,533.915,366.081,531.963,364.128z"/>
		<path fill="#11191A" d="M532.675,363.415l-86.312-86.312h3.067c13.07,0,23.665-10.595,23.665-23.665v-3.702h-23.035V55.507
			c0-7.18-5.82-13-13-13h-90.622c-38.325-22.926-86.537-22.926-124.862,0h-85.97c-7.18,0-13,5.82-13,13v194.229H99.573v3.702
			c0,13.07,10.595,23.665,23.665,23.665h250.148l-0.027,0.027c-1.172,1.172-1.172,3.071,0,4.243l4.957,4.957
			c1.172,1.172,3.071,1.172,4.243,0l4.216-4.216l113.049,113.049c0,0,0,0,0,0l0.553,0.553c1.953,1.953,5.118,1.953,7.071,0
			l6.482-6.481c0.902,0.902,1.955,1.556,3.075,1.977c0.406,0.153,0.821,0.276,1.242,0.365c0.598,0.128,1.207,0.198,1.816,0.198
			c2.22,0,4.439-0.847,6.133-2.54c3.387-3.387,3.387-8.879,0-12.266l0,0l6.481-6.481
			C534.628,368.534,534.628,365.368,532.675,363.415z"/>
		<path fill="#11191A" d="M533.388,362.703l-86.312-86.312h3.067c13.07,0,23.665-10.595,23.665-23.665v-3.702h-23.035V54.795
			c0-7.18-5.82-13-13-13h-90.622c-38.325-22.926-86.537-22.926-124.862,0h-85.97c-7.18,0-13,5.82-13,13v194.229h-23.035v3.702
			c0,13.07,10.595,23.665,23.665,23.665h250.148l-0.027,0.027c-1.172,1.172-1.172,3.071,0,4.243l4.957,4.957
			c1.172,1.172,3.071,1.172,4.243,0l4.216-4.216l113.049,113.049c0,0,0,0,0,0l0.553,0.553c1.953,1.953,5.118,1.953,7.071,0
			l6.481-6.481c0.902,0.902,1.955,1.556,3.075,1.977c0.406,0.153,0.821,0.276,1.242,0.365c0.598,0.128,1.207,0.198,1.816,0.198
			c2.22,0,4.439-0.847,6.133-2.54c3.387-3.387,3.387-8.879,0-12.266l0,0l6.481-6.481
			C535.341,367.821,535.341,364.655,533.388,362.703z"/>
		<path fill="#11191A" d="M534.101,361.99l-86.312-86.312h3.067c13.07,0,23.665-10.595,23.665-23.665v-3.702h-23.035V54.082
			c0-7.18-5.82-13-13-13h-90.622c-38.325-22.926-86.537-22.926-124.862,0h-85.97c-7.18,0-13,5.82-13,13v194.229h-23.035v3.702
			c0,13.07,10.595,23.665,23.665,23.665h250.148l-0.027,0.027c-1.172,1.172-1.172,3.071,0,4.243l4.957,4.957
			c1.172,1.172,3.071,1.172,4.243,0l4.216-4.216l113.049,113.049c0,0,0,0,0,0l0.553,0.553c1.953,1.953,5.118,1.953,7.071,0
			l6.482-6.481c0.902,0.902,1.955,1.556,3.075,1.977c0.406,0.153,0.821,0.276,1.242,0.365c0.598,0.128,1.207,0.198,1.816,0.198
			c2.22,0,4.439-0.847,6.133-2.54c3.387-3.387,3.387-8.879,0-12.266l0,0l6.481-6.481
			C536.053,367.109,536.053,363.943,534.101,361.99z"/>
		<path fill="#11191A" d="M534.813,361.278l-86.312-86.312h3.067c13.07,0,23.665-10.595,23.665-23.665v-3.702h-23.035V53.369
			c0-7.18-5.82-13-13-13h-90.622c-38.325-22.926-86.537-22.926-124.862,0h-85.97c-7.18,0-13,5.82-13,13v194.229h-23.035v3.702
			c0,13.07,10.595,23.665,23.665,23.665h250.148l-0.027,0.027c-1.172,1.172-1.172,3.071,0,4.243l4.957,4.957
			c1.172,1.172,3.071,1.172,4.243,0l4.216-4.216l113.049,113.049c0,0,0,0,0,0l0.553,0.553c1.953,1.953,5.118,1.953,7.071,0
			l6.482-6.481c0.902,0.902,1.955,1.556,3.075,1.977c0.406,0.153,0.821,0.276,1.242,0.365c0.598,0.128,1.207,0.198,1.816,0.198
			c2.22,0,4.439-0.847,6.133-2.54c3.387-3.387,3.387-8.879,0-12.266l0,0l6.481-6.481
			C536.766,366.396,536.766,363.23,534.813,361.278z"/>
		<path fill="#11191A" d="M535.526,360.565l-86.312-86.312h3.067c13.07,0,23.665-10.595,23.665-23.665v-3.702h-23.035V52.657
			c0-7.18-5.82-13-13-13H349.29c-38.325-22.926-86.537-22.926-124.862,0h-85.97c-7.18,0-13,5.82-13,13v194.229h-23.035v3.702
			c0,13.07,10.595,23.665,23.665,23.665h250.148l-0.027,0.027c-1.172,1.172-1.172,3.071,0,4.243l4.957,4.957
			c1.172,1.172,3.071,1.172,4.243,0l4.216-4.216l113.049,113.049c0,0,0,0,0,0l0.553,0.553c1.953,1.953,5.118,1.953,7.071,0
			l6.481-6.481c0.902,0.902,1.955,1.556,3.075,1.977c0.406,0.153,0.821,0.276,1.242,0.365c0.598,0.128,1.207,0.198,1.816,0.198
			c2.22,0,4.439-0.847,6.133-2.54c3.387-3.387,3.387-8.879,0-12.266l0,0l6.481-6.481
			C537.478,365.683,537.478,362.518,535.526,360.565z"/>
		<path fill="#11191A" d="M536.238,359.852l-86.312-86.312h3.067c13.07,0,23.665-10.595,23.665-23.665v-3.702h-23.035V51.944
			c0-7.18-5.82-13-13-13h-90.622c-38.325-22.926-86.537-22.926-124.862,0h-85.97c-7.18,0-13,5.82-13,13v194.229h-23.035v3.702
			c0,13.07,10.595,23.665,23.665,23.665h250.148l-0.027,0.027c-1.172,1.172-1.172,3.071,0,4.243l4.957,4.957
			c1.172,1.172,3.071,1.172,4.243,0l4.216-4.216l113.049,113.049c0,0,0,0,0,0l0.553,0.553c1.953,1.953,5.118,1.953,7.071,0
			l6.482-6.481c0.902,0.902,1.955,1.556,3.075,1.977c0.406,0.153,0.821,0.276,1.242,0.365c0.598,0.128,1.207,0.198,1.816,0.198
			c2.22,0,4.439-0.847,6.133-2.54c3.387-3.387,3.387-8.879,0-12.266l0,0l6.481-6.481
			C538.191,364.971,538.191,361.805,536.238,359.852z"/>
		<path fill="#11191A" d="M536.951,359.14l-86.312-86.312h3.067c13.07,0,23.665-10.595,23.665-23.665v-3.702h-23.035V51.232
			c0-7.18-5.82-13-13-13h-90.622c-38.325-22.926-86.537-22.926-124.862,0h-85.97c-7.18,0-13,5.82-13,13v194.229h-23.035v3.702
			c0,13.07,10.595,23.665,23.665,23.665h250.148l-0.027,0.027c-1.172,1.172-1.172,3.071,0,4.243l4.957,4.957
			c1.172,1.172,3.071,1.172,4.243,0l4.216-4.216l113.049,113.049c0,0,0,0,0,0l0.553,0.553c1.953,1.953,5.118,1.953,7.071,0
			l6.481-6.481c0.902,0.902,1.955,1.556,3.075,1.977c0.406,0.153,0.821,0.276,1.242,0.365c0.598,0.128,1.207,0.198,1.816,0.198
			c2.22,0,4.439-0.847,6.133-2.54c3.387-3.387,3.387-8.879,0-12.266l0,0l6.481-6.481
			C538.904,364.258,538.904,361.092,536.951,359.14z"/>
		<path fill="#11191A" d="M537.664,358.427l-86.312-86.312h3.067c13.07,0,23.665-10.595,23.665-23.665v-3.702H455.05V50.519
			c0-7.18-5.82-13-13-13h-90.622c-38.325-22.926-86.537-22.926-124.862,0h-85.97c-7.18,0-13,5.82-13,13v194.229h-23.035v3.702
			c0,13.07,10.595,23.665,23.665,23.665h250.148l-0.027,0.027c-1.172,1.172-1.172,3.071,0,4.243l4.957,4.957
			c1.172,1.172,3.071,1.172,4.243,0l4.216-4.216l113.049,113.049c0,0,0,0,0,0l0.553,0.553c1.953,1.953,5.118,1.953,7.071,0
			l6.482-6.481c0.902,0.902,1.955,1.556,3.075,1.977c0.406,0.153,0.821,0.276,1.242,0.365c0.598,0.128,1.207,0.198,1.816,0.198
			c2.22,0,4.439-0.847,6.133-2.54c3.387-3.387,3.387-8.879,0-12.266l0,0l6.481-6.481
			C539.616,363.546,539.616,360.38,537.664,358.427z"/>
		<path fill="#11191A" d="M538.376,357.715l-86.312-86.312h3.067c13.07,0,23.665-10.595,23.665-23.665v-3.702h-23.035V49.806
			c0-7.18-5.82-13-13-13H352.14c-38.325-22.926-86.537-22.926-124.862,0h-85.97c-7.18,0-13,5.82-13,13v194.229h-23.035v3.702
			c0,13.07,10.595,23.665,23.665,23.665h250.148l-0.027,0.027c-1.172,1.172-1.172,3.071,0,4.243l4.957,4.957
			c1.172,1.172,3.071,1.172,4.243,0l4.216-4.216l113.049,113.049c0,0,0,0,0,0l0.553,0.553c1.953,1.953,5.118,1.953,7.071,0
			l6.482-6.481c0.902,0.902,1.955,1.556,3.075,1.977c0.406,0.153,0.821,0.276,1.242,0.365c0.598,0.128,1.207,0.198,1.816,0.198
			c2.22,0,4.439-0.847,6.133-2.54c3.387-3.387,3.387-8.879,0-12.266l0,0l6.481-6.481
			C540.329,362.833,540.329,359.667,538.376,357.715z"/>
		<path fill="#11191A" d="M539.089,357.002l-86.312-86.312h3.067c13.07,0,23.665-10.595,23.665-23.665v-3.702h-23.035V49.094
			c0-7.18-5.82-13-13-13h-90.622c-38.325-22.926-86.537-22.926-124.862,0h-85.97c-7.18,0-13,5.82-13,13v194.229h-23.035v3.702
			c0,13.07,10.595,23.665,23.665,23.665h250.148l-0.027,0.027c-1.172,1.172-1.172,3.071,0,4.243l4.957,4.957
			c1.172,1.172,3.071,1.172,4.243,0l4.216-4.216l113.049,113.049c0,0,0,0,0,0l0.553,0.553c1.953,1.953,5.118,1.953,7.071,0
			l6.481-6.481c0.902,0.902,1.955,1.556,3.075,1.977c0.406,0.153,0.821,0.276,1.242,0.365c0.598,0.128,1.207,0.198,1.816,0.198
			c2.22,0,4.439-0.847,6.133-2.54c3.387-3.387,3.387-8.879,0-12.266l0,0l6.481-6.481
			C541.041,362.12,541.041,358.955,539.089,357.002z"/>
		<path fill="#11191A" d="M539.801,356.289l-86.312-86.312h3.067c13.07,0,23.665-10.595,23.665-23.665v-3.702h-23.035V48.381
			c0-7.18-5.82-13-13-13h-90.622c-38.325-22.926-86.537-22.926-124.862,0h-85.97c-7.18,0-13,5.82-13,13V242.61h-23.035v3.702
			c0,13.07,10.595,23.665,23.665,23.665h250.148l-0.027,0.027c-1.172,1.172-1.172,3.071,0,4.243l4.957,4.957
			c1.172,1.172,3.071,1.172,4.243,0l4.216-4.216l113.049,113.049c0,0,0,0,0,0l0.553,0.553c1.953,1.953,5.118,1.953,7.071,0
			l6.482-6.481c0.902,0.902,1.955,1.556,3.075,1.977c0.406,0.153,0.821,0.276,1.242,0.365c0.598,0.128,1.207,0.198,1.816,0.198
			c2.22,0,4.439-0.847,6.133-2.54c3.387-3.387,3.387-8.879,0-12.266l0,0l6.481-6.481
			C541.754,361.408,541.754,358.242,539.801,356.289z"/>
		<path fill="#11191A" d="M540.514,355.577l-86.312-86.312h3.067c13.07,0,23.665-10.595,23.665-23.665v-3.702H457.9V47.669
			c0-7.18-5.82-13-13-13h-90.622c-38.325-22.926-86.537-22.926-124.862,0h-85.97c-7.18,0-13,5.82-13,13v194.229h-23.035v3.702
			c0,13.07,10.595,23.665,23.665,23.665h250.148l-0.027,0.027c-1.172,1.172-1.172,3.071,0,4.243l4.957,4.957
			c1.172,1.172,3.071,1.172,4.243,0l4.216-4.216l113.049,113.049c0,0,0,0,0,0l0.553,0.553c1.953,1.953,5.118,1.953,7.071,0
			l6.481-6.481c0.902,0.902,1.955,1.556,3.075,1.977c0.407,0.153,0.821,0.276,1.242,0.365c0.598,0.128,1.207,0.198,1.816,0.198
			c2.22,0,4.439-0.847,6.133-2.54c3.387-3.387,3.387-8.879,0-12.266l0,0l6.481-6.481
			C542.467,360.695,542.467,357.529,540.514,355.577z"/>
		<path fill="#11191A" d="M541.227,354.864l-86.312-86.312h3.067c13.07,0,23.665-10.595,23.665-23.665v-3.702h-23.035V46.956
			c0-7.18-5.82-13-13-13h-90.622c-38.325-22.926-86.537-22.926-124.862,0h-85.97c-7.18,0-13,5.82-13,13v194.229h-23.035v3.702
			c0,13.07,10.595,23.665,23.665,23.665h250.148l-0.027,0.027c-1.172,1.172-1.172,3.071,0,4.243l4.957,4.957
			c1.172,1.172,3.071,1.172,4.243,0l4.216-4.216l113.049,113.049c0,0,0,0,0,0l0.553,0.553c1.953,1.953,5.118,1.953,7.071,0
			l6.482-6.481c0.902,0.902,1.955,1.556,3.075,1.977c0.406,0.153,0.821,0.276,1.242,0.365c0.598,0.128,1.207,0.198,1.816,0.198
			c2.22,0,4.439-0.847,6.133-2.54c3.387-3.387,3.387-8.879,0-12.266l0,0l6.481-6.481
			C543.179,359.983,543.179,356.817,541.227,354.864z"/>
		<path fill="#11191A" d="M541.939,354.151l-86.312-86.312h3.067c13.07,0,23.665-10.595,23.665-23.665v-3.702h-23.035V46.243
			c0-7.18-5.82-13-13-13h-90.622c-38.325-22.926-86.537-22.926-124.862,0h-85.97c-7.18,0-13,5.82-13,13v194.229h-23.035v3.702
			c0,13.07,10.595,23.665,23.665,23.665H382.65l-0.027,0.027c-1.172,1.172-1.172,3.071,0,4.243l4.957,4.957
			c1.172,1.172,3.071,1.172,4.243,0l4.216-4.216l113.049,113.049c0,0,0,0,0,0l0.553,0.553c1.953,1.953,5.118,1.953,7.071,0
			l6.482-6.481c0.902,0.902,1.955,1.556,3.075,1.977c0.406,0.153,0.821,0.276,1.242,0.365c0.598,0.128,1.207,0.198,1.816,0.198
			c2.22,0,4.439-0.847,6.133-2.54c3.387-3.387,3.387-8.879,0-12.266l0,0l6.481-6.481
			C543.892,359.27,543.892,356.104,541.939,354.151z"/>
		<path fill="#11191A" d="M542.652,353.439l-86.312-86.312h3.067c13.07,0,23.665-10.595,23.665-23.665v-3.702h-23.035V45.531
			c0-7.18-5.82-13-13-13h-90.622c-38.325-22.926-86.537-22.926-124.862,0h-85.97c-7.18,0-13,5.82-13,13V239.76h-23.035v3.702
			c0,13.07,10.595,23.665,23.665,23.665h250.148l-0.027,0.027c-1.172,1.172-1.172,3.071,0,4.243l4.957,4.957
			c1.172,1.172,3.071,1.172,4.243,0l4.216-4.216l113.049,113.049c0,0,0,0,0,0l0.553,0.553c1.953,1.953,5.118,1.953,7.071,0
			l6.482-6.481c0.902,0.902,1.955,1.556,3.075,1.977c0.406,0.153,0.821,0.276,1.242,0.365c0.598,0.128,1.207,0.198,1.816,0.198
			c2.22,0,4.439-0.847,6.133-2.54c3.387-3.387,3.387-8.879,0-12.266l0,0l6.481-6.481
			C544.604,358.557,544.604,355.391,542.652,353.439z"/>
		<path fill="#11191A" d="M543.365,352.726l-86.312-86.312h3.067c13.07,0,23.665-10.595,23.665-23.665v-3.702h-23.035V44.818
			c0-7.18-5.82-13-13-13h-90.622c-38.325-22.926-86.537-22.926-124.862,0h-85.97c-7.18,0-13,5.82-13,13v194.229h-23.035v3.702
			c0,13.07,10.595,23.665,23.665,23.665h250.148l-0.027,0.027c-1.172,1.172-1.172,3.071,0,4.243l4.957,4.957
			c1.172,1.172,3.071,1.172,4.243,0l4.216-4.216l113.049,113.049c0,0,0,0,0,0l0.553,0.553c1.953,1.953,5.118,1.953,7.071,0
			l6.482-6.481c0.902,0.902,1.955,1.556,3.075,1.977c0.406,0.153,0.821,0.276,1.242,0.365c0.598,0.128,1.207,0.198,1.816,0.198
			c2.22,0,4.439-0.847,6.133-2.54c3.387-3.387,3.387-8.879,0-12.266l0,0l6.481-6.481
			C545.317,357.845,545.317,354.679,543.365,352.726z"/>
		<path fill="#11191A" d="M544.077,352.014l-86.312-86.312h3.067c13.07,0,23.665-10.595,23.665-23.665v-3.702h-23.035V44.106
			c0-7.18-5.82-13-13-13h-90.622c-38.325-22.926-86.537-22.926-124.862,0h-85.97c-7.18,0-13,5.82-13,13v194.229h-23.035v3.702
			c0,13.07,10.595,23.665,23.665,23.665h250.148l-0.027,0.027c-1.172,1.172-1.172,3.071,0,4.243l4.957,4.957
			c1.172,1.172,3.071,1.172,4.243,0l4.216-4.216L511.225,383.76c0,0,0,0,0,0l0.553,0.553c1.953,1.953,5.118,1.953,7.071,0
			l6.481-6.481c0.902,0.902,1.955,1.556,3.075,1.977c0.406,0.153,0.821,0.276,1.242,0.365c0.598,0.128,1.207,0.198,1.816,0.198
			c2.22,0,4.439-0.847,6.133-2.54c3.387-3.387,3.387-8.879,0-12.266l0,0l6.481-6.481C546.03,357.132,546.03,353.966,544.077,352.014
			z"/>
		<path fill="#11191A" d="M544.79,351.301l-86.312-86.312h3.067c13.07,0,23.665-10.595,23.665-23.665v-3.702h-23.035V43.393
			c0-7.18-5.82-13-13-13h-90.622c-38.325-22.926-86.537-22.926-124.862,0h-85.97c-7.18,0-13,5.82-13,13v194.229h-23.035v3.702
			c0,13.07,10.595,23.665,23.665,23.665H385.5l-0.027,0.027c-1.172,1.171-1.172,3.071,0,4.243l4.956,4.957
			c1.172,1.172,3.071,1.172,4.243,0l4.216-4.216l113.049,113.049c0,0,0,0,0,0l0.553,0.553c1.953,1.953,5.118,1.953,7.071,0
			l6.482-6.481c0.902,0.902,1.955,1.556,3.075,1.977c0.406,0.153,0.821,0.276,1.242,0.365c0.598,0.128,1.207,0.198,1.816,0.198
			c2.22,0,4.439-0.847,6.133-2.54c3.387-3.387,3.387-8.879,0-12.266l0,0l6.481-6.481C546.742,356.42,546.742,353.254,544.79,351.301
			z"/>
		<path fill="#11191A" d="M545.502,350.588l-86.312-86.312h3.067c13.07,0,23.665-10.595,23.665-23.665v-3.702h-23.035V42.68
			c0-7.18-5.82-13-13-13h-90.622c-38.325-22.926-86.537-22.926-124.862,0h-85.97c-7.18,0-13,5.82-13,13V236.91H112.4v3.702
			c0,13.07,10.595,23.665,23.665,23.665h250.148l-0.027,0.027c-1.172,1.172-1.172,3.071,0,4.243l4.956,4.957
			c1.172,1.172,3.071,1.172,4.243,0l4.216-4.216L512.65,382.335c0,0,0,0,0,0l0.553,0.553c1.953,1.953,5.118,1.953,7.071,0
			l6.481-6.481c0.902,0.902,1.955,1.556,3.075,1.977c0.406,0.153,0.821,0.276,1.242,0.365c0.598,0.128,1.207,0.198,1.816,0.198
			c2.22,0,4.439-0.847,6.133-2.54c3.387-3.387,3.387-8.879,0-12.266l0,0l6.481-6.481
			C547.455,355.707,547.455,352.541,545.502,350.588z"/>
		<path fill="#11191A" d="M546.215,349.876l-86.312-86.312h3.067c13.07,0,23.665-10.595,23.665-23.665v-3.702h-23.035V41.968
			c0-7.18-5.82-13-13-13h-90.622c-38.325-22.926-86.537-22.926-124.862,0h-85.97c-7.18,0-13,5.82-13,13v194.229h-23.035v3.702
			c0,13.07,10.595,23.665,23.665,23.665h250.148l-0.027,0.027c-1.172,1.172-1.172,3.071,0,4.243l4.957,4.957
			c1.172,1.172,3.071,1.172,4.243,0l4.216-4.216l113.049,113.049c0,0,0,0,0,0l0.553,0.553c1.953,1.953,5.118,1.953,7.071,0
			l6.482-6.481c0.902,0.902,1.955,1.556,3.075,1.977c0.406,0.153,0.821,0.276,1.242,0.365c0.598,0.128,1.207,0.198,1.816,0.198
			c2.22,0,4.439-0.847,6.133-2.54c3.387-3.387,3.387-8.879,0-12.266l0,0l6.481-6.481
			C548.168,354.994,548.168,351.828,546.215,349.876z"/>
		<path fill="#11191A" d="M546.928,349.163l-86.312-86.312h3.067c13.07,0,23.665-10.595,23.665-23.665v-3.702h-23.035V41.255
			c0-7.18-5.82-13-13-13h-90.622c-38.325-22.926-86.537-22.926-124.862,0h-85.97c-7.18,0-13,5.82-13,13v194.229h-23.035v3.702
			c0,13.07,10.595,23.665,23.665,23.665h250.148l-0.027,0.027c-1.172,1.172-1.172,3.071,0,4.243l4.957,4.957
			c1.172,1.172,3.071,1.172,4.243,0l4.216-4.216L514.075,380.91l0,0l0.553,0.553c1.953,1.953,5.118,1.953,7.071,0l6.482-6.481
			c0.902,0.902,1.955,1.556,3.075,1.977c0.406,0.153,0.821,0.276,1.242,0.365c0.598,0.128,1.207,0.198,1.816,0.198
			c2.22,0,4.439-0.847,6.133-2.54c3.387-3.387,3.387-8.879,0-12.266l0,0l6.481-6.481C548.88,354.282,548.88,351.116,546.928,349.163
			z"/>
	</g>
	<g opacity="0.1">
		<path fill="#233133" d="M546.375,348.61L460.6,262.836c14.828-0.33,26.748-12.445,26.748-27.351h-23.035V43.289
			c0-8.303-6.731-15.034-15.033-15.034h-88.589c-38.325-22.926-86.537-22.926-124.862,0h-83.936
			c-8.303,0-15.033,6.731-15.033,15.034v192.196h-23.035c0,15.114,12.253,27.367,27.367,27.367h246.502
			c-0.501,0.63-0.767,1.384-0.767,2.148c0,0.888,0.339,1.776,1.016,2.453l4.293,4.293c0.678,0.677,1.565,1.016,2.453,1.016
			c0.222,0,0.444-0.021,0.663-0.063c0.656-0.127,1.283-0.445,1.79-0.953l3.884-3.884L514.075,380.91
			c0.282,0.282,0.586,0.529,0.907,0.741c0.669,0.442,1.411,0.722,2.174,0.856c0.715,0.126,1.448,0.119,2.16-0.023
			c0.712-0.142,1.402-0.419,2.029-0.833c0.32-0.212,0.625-0.459,0.907-0.741l5.928-5.928c1.059,1.058,2.323,1.786,3.664,2.183
			c0.805,0.238,1.637,0.357,2.469,0.357c1.013,0,2.023-0.185,2.986-0.538c1.147-0.42,2.226-1.082,3.147-2.002
			c3.387-3.387,3.387-8.879,0-12.266l5.928-5.928C548.633,354.529,548.633,350.868,546.375,348.61z"/>
	</g>
	<g>
		<g>
			<path fill="#595959" d="M464.313,235.49H136.86V41.261c0-7.18,5.82-13,13-13h301.454c7.18,0,13,5.82,13,13V235.49z"/>
			<path fill="#CCCCCC" d="M463.683,262.857H137.49c-13.07,0-23.665-10.595-23.665-23.665v-3.702h373.523v3.702
				C487.348,252.262,476.753,262.857,463.683,262.857z"/>
			<path fill="#E6E6E6" d="M337.223,249.174H263.95c-6.535,0-11.833-5.298-11.833-11.833v-1.851h96.938v1.851
				C349.056,243.876,343.758,249.174,337.223,249.174z"/>
			<path fill="#808080" d="M454.405,250.943h-21.854c-0.552,0-1-0.448-1-1v-1.538c0-0.552,0.448-1,1-1h21.854c0.552,0,1,0.448,1,1
				v1.538C455.405,250.495,454.957,250.943,454.405,250.943z"/>
			<path fill="#A2C9EB" d="M446.626,221.743H154.547c-1.657,0-3-1.343-3-3V45.008c0-1.657,1.343-3,3-3h292.079c1.657,0,3,1.343,3,3
				v173.735C449.626,220.4,448.283,221.743,446.626,221.743z"/>
			<path display="none" fill="#C26E55" d="M447.359,221.743H153.814c-1.252,0-2.267-1.015-2.267-2.267v-50.88l33.437-14.809
				l38.534-60.95l38.534,87.143l38.534-52.965l38.534-24.607l38.534,12.089l38.534-30.727l33.437,7.555v128.15
				C449.626,220.728,448.611,221.743,447.359,221.743z"/>
			<g display="none">
				<polygon display="inline" fill="#595959" points="261.651,183.743 223.223,96.84 186.274,155.282 146.081,173.093 
					144.551,169.639 183.694,152.293 223.814,88.836 262.454,176.217 299.269,125.616 338.846,100.342 377.262,112.395 
					415.725,81.725 455.83,90.998 454.979,94.678 416.653,85.817 378.047,116.6 339.395,104.474 301.904,128.415 				"/>
			</g>
			<g display="none">
				<circle display="inline" fill="#E6E6E6" cx="184.984" cy="153.787" r="6.422"/>
				<circle display="inline" fill="#E6E6E6" cx="223.518" cy="92.838" r="6.422"/>
				<circle display="inline" fill="#E6E6E6" cx="262.052" cy="179.98" r="6.422"/>
				<circle display="inline" fill="#E6E6E6" cx="300.587" cy="127.015" r="6.422"/>
				<circle display="inline" fill="#E6E6E6" cx="339.121" cy="102.408" r="6.422"/>
				<circle display="inline" fill="#E6E6E6" cx="377.655" cy="114.497" r="6.422"/>
				<circle display="inline" fill="#E6E6E6" cx="416.189" cy="83.771" r="6.422"/>
			</g>
		</g>
		<g display="none">
			<defs>
				<circle id="SVGID_1_" cx="298.274" cy="132.838" r="105.642"/>
			</defs>
			<clipPath id="SVGID_2_" display="inline">
				<use xlink:href="#SVGID_1_"  overflow="visible"/>
			</clipPath>
			<g display="inline" clip-path="url(#SVGID_2_)">
				<path fill="#595959" d="M551.174,283.2H49.999V-20.968c0-7.18,5.82-13,13-13h475.174c7.18,0,13,5.82,13,13V283.2z"/>
				<path fill="#CCCCCC" d="M550.209,325.086H50.964c-20.004,0-36.22-16.216-36.22-36.22V283.2h571.685v5.666
					C586.429,308.87,570.213,325.086,550.209,325.086z"/>
				<path fill="#E6E6E6" d="M356.66,304.143H244.513c-10.002,0-18.11-8.108-18.11-18.11V283.2H374.77v2.833
					C374.77,296.035,366.662,304.143,356.66,304.143z"/>
				<path fill="#808080" d="M536.539,306.85H502.03c-0.552,0-1-0.448-1-1v-3.414c0-0.552,0.448-1,1-1h34.509c0.552,0,1,0.448,1,1
					v3.414C537.539,306.403,537.091,306.85,536.539,306.85z"/>
				<path fill="#DB7E60" d="M525.694,262.16H75.479c-1.657,0-3-1.343-3-3V-9.928c0-1.657,1.343-3,3-3h450.216c1.657,0,3,1.343,3,3
					V259.16C528.694,260.817,527.351,262.16,525.694,262.16z"/>
				<path fill="#C26E55" d="M525.225,262.16H75.948c-1.916,0-3.469-1.553-3.469-3.469v-77.874l51.176-22.665l58.977-93.285
					l58.977,133.374l58.977-81.064l58.977-37.661l58.977,18.503l58.977-47.028l51.176,11.564v196.137
					C528.694,260.607,527.141,262.16,525.225,262.16z"/>
				<g>
					<polygon fill="#595959" points="240.995,204 182.179,70.993 125.628,160.44 64.113,187.701 61.771,182.415 121.68,155.865 
						183.084,58.743 242.223,192.482 298.57,115.035 359.144,76.354 417.94,94.8 476.808,47.86 538.19,62.052 536.887,67.685 
						478.229,54.123 419.142,101.237 359.984,82.678 302.602,119.32 					"/>
				</g>
				<g>
					<circle fill="#E6E6E6" cx="123.654" cy="158.152" r="9.83"/>
					<circle fill="#E6E6E6" cx="182.632" cy="64.868" r="9.83"/>
					<circle fill="#E6E6E6" cx="241.609" cy="198.242" r="9.83"/>
					<circle fill="#E6E6E6" cx="300.587" cy="117.177" r="9.83"/>
					<circle fill="#E6E6E6" cx="359.564" cy="79.516" r="9.83"/>
					<circle fill="#E6E6E6" cx="418.541" cy="98.019" r="9.83"/>
					<circle fill="#E6E6E6" cx="477.519" cy="50.991" r="9.83"/>
				</g>
			</g>
		</g>
		<g display="none">
			<path display="inline" fill="#FCB414" d="M408.233,192.888c0,2.616-2.121,4.736-4.736,4.736H205.987
				c-2.616,0-4.736-2.121-4.736-4.736V80.634c0-2.616,2.121-4.736,4.736-4.736h197.509c2.616,0,4.736,2.121,4.736,4.736V192.888z"/>
			<g display="inline">
				<circle fill="#474C55" cx="234.169" cy="107.395" r="8.289"/>
				<rect x="259.983" y="102.185" width="124.094" height="4.5"/>
				<rect x="259.983" y="109.29" width="64.415" height="4.5"/>
			</g>
			<g display="inline">
				<circle fill="#E64A3B" cx="234.169" cy="131.077" r="8.289"/>
				<rect x="259.983" y="125.867" width="124.094" height="4.5"/>
				<rect x="259.983" y="132.972" width="64.415" height="4.5"/>
			</g>
			<g display="inline">
				<circle fill="#474C55" cx="234.169" cy="154.759" r="8.289"/>
				<rect x="259.983" y="149.549" width="124.094" height="4.5"/>
				<rect x="259.983" y="156.654" width="64.415" height="4.5"/>
			</g>
			<g display="inline">
				<circle fill="#474C55" cx="234.169" cy="178.442" r="8.289"/>
				<rect x="259.983" y="173.231" width="124.094" height="4.5"/>
				<rect x="259.983" y="180.336" width="64.415" height="4.5"/>
			</g>
			<polygon display="inline" fill="#FFFFFF" points="228.091,132.104 230.38,127.999 234.722,130.051 240.405,121.683 
				244.51,125.157 236.301,137.787 			"/>
		</g>
		<g>
			<path fill-rule="evenodd" clip-rule="evenodd" fill="#A2C9EB" d="M255.287,56.605H380.92c13.191,0,23.985,10.793,23.985,23.984
				v125.633c0,13.191-10.793,23.984-23.985,23.984H255.287c-13.192,0-23.984-10.793-23.984-23.984V80.589
				C231.303,67.398,242.096,56.605,255.287,56.605z"/>
			<g>
				<path fill="#DBEEFF" d="M360.803,167.124c1.022,0.128,1.955-0.597,2.083-1.62c0.128-1.022-0.596-1.955-1.619-2.083
					c-0.251-0.032-0.501-0.074-0.75-0.127c-2.153-0.461-3.908-1.707-5.049-3.414c-1.164-1.741-1.706-3.972-1.408-6.362
					c0.038-0.305,0.09-0.617,0.158-0.935c0.595-2.78,2.206-5.163,4.328-6.765c2.093-1.581,4.679-2.398,7.258-2.076
					c0.559,0.07,1.111,0.163,1.656,0.28c4.796,1.026,8.708,3.808,11.257,7.62c2.572,3.846,3.773,8.753,3.12,13.99
					c-0.083,0.667-0.197,1.344-0.344,2.028c-1.286,6.009-4.768,11.158-9.36,14.625c-4.562,3.445-10.213,5.222-15.87,4.517
					c-0.868-0.109-1.723-0.253-2.564-0.433c-7.438-1.591-13.508-5.907-17.465-11.826c-3.979-5.951-5.838-13.534-4.831-21.616
					c0.128-1.03,0.304-2.071,0.529-3.122c1.976-9.237,7.332-17.153,14.392-22.485c7.031-5.309,15.748-8.048,24.481-6.959
					c1.176,0.146,2.334,0.342,3.472,0.586c10.081,2.157,18.308,8.008,23.672,16.031c5.388,8.057,7.906,18.316,6.543,29.244
					c-0.173,1.391-0.41,2.797-0.713,4.215c-0.193,0.9,0.299,1.788,1.124,2.121v-30.512c-1.072-2.512-2.364-4.9-3.858-7.134
					c-5.897-8.82-14.929-15.25-25.987-17.616c-1.235-0.265-2.499-0.478-3.789-0.639c-9.727-1.212-19.405,1.816-27.188,7.692
					c-7.753,5.854-13.632,14.541-15.8,24.674c-0.246,1.149-0.439,2.297-0.582,3.439c-1.121,8.994,0.971,17.466,5.438,24.147
					c4.49,6.715,11.364,11.609,19.78,13.41c0.938,0.201,1.899,0.363,2.882,0.486c6.65,0.829,13.263-1.238,18.577-5.25
					c5.284-3.99,9.291-9.91,10.768-16.814c0.167-0.782,0.299-1.565,0.396-2.345c0.767-6.148-0.668-11.945-3.726-16.52
					c-3.083-4.61-7.8-7.969-13.574-9.204c-0.641-0.137-1.3-0.248-1.973-0.332c-3.574-0.446-7.121,0.66-9.965,2.808
					c-2.815,2.126-4.95,5.279-5.736,8.954c-0.089,0.415-0.159,0.834-0.212,1.253c-0.412,3.301,0.363,6.422,2.015,8.892
					c1.674,2.503,4.234,4.328,7.365,4.998C360.081,167.018,360.437,167.078,360.803,167.124z"/>
				<circle fill-rule="evenodd" clip-rule="evenodd" fill="#46749C" cx="396.479" cy="129.21" r="5.106"/>
				<polygon fill="#46749C" points="404.905,134.764 371.873,107.018 370.372,108.804 404.905,137.811 				"/>
				<circle fill-rule="evenodd" clip-rule="evenodd" fill="#46749C" cx="371.122" cy="107.911" r="5.106"/>
				<g>
					<circle fill-rule="evenodd" clip-rule="evenodd" fill="#6690B5" cx="333.722" cy="142.718" r="7.414"/>
					<circle fill-rule="evenodd" clip-rule="evenodd" fill="#DBEEFF" cx="333.722" cy="142.718" r="5.283"/>
				</g>
				<g>
					<circle fill-rule="evenodd" clip-rule="evenodd" fill="#6690B5" cx="379.751" cy="177.987" r="7.414"/>
					<circle fill-rule="evenodd" clip-rule="evenodd" fill="#DBEEFF" cx="379.751" cy="177.987" r="5.283"/>
				</g>
				<g>
					<circle fill-rule="evenodd" clip-rule="evenodd" fill="#6690B5" cx="360.471" cy="165.109" r="7.414"/>
					<circle fill-rule="evenodd" clip-rule="evenodd" fill="#DBEEFF" cx="360.471" cy="165.109" r="5.284"/>
				</g>
				<g>
					<path fill-rule="evenodd" clip-rule="evenodd" fill="#6690B5" d="M404.905,164.589c-2.37-0.25-4.818,0.643-6.466,2.605
						c-2.633,3.136-2.227,7.813,0.909,10.446c1.608,1.351,3.621,1.902,5.556,1.695V164.589z"/>
					<path fill-rule="evenodd" clip-rule="evenodd" fill="#DBEEFF" d="M404.905,166.738c-1.758-0.263-3.607,0.366-4.834,1.827
						c-1.876,2.234-1.587,5.568,0.648,7.444c1.209,1.016,2.739,1.396,4.186,1.178V166.738z"/>
				</g>
				<g>
					<circle fill-rule="evenodd" clip-rule="evenodd" fill="#6690B5" cx="341.51" cy="182.16" r="7.414"/>
					<circle fill-rule="evenodd" clip-rule="evenodd" fill="#DBEEFF" cx="341.509" cy="182.16" r="5.284"/>
				</g>
			</g>
			<g>
				<g>
					<polygon fill-rule="evenodd" clip-rule="evenodd" fill="#4D4D4D" points="268.152,178.848 297.473,178.848 311.217,203.745 
						254.408,203.745 					"/>
					<path fill-rule="evenodd" clip-rule="evenodd" fill="#46749C" d="M213.719,81.676h138.186c3.889,0,7.07,3.182,7.07,7.07v89.344
						c0,3.888-3.181,7.07-7.07,7.07H213.719c-3.888,0-7.069-3.182-7.069-7.07V88.746C206.65,84.857,209.831,81.676,213.719,81.676z"
						/>
					<g>
						<circle fill-rule="evenodd" clip-rule="evenodd" fill="#F5F5F5" cx="350.39" cy="178.911" r="0.918"/>
						<circle fill-rule="evenodd" clip-rule="evenodd" fill="#F5F5F5" cx="346.805" cy="178.911" r="0.918"/>
						<circle fill-rule="evenodd" clip-rule="evenodd" fill="#F5F5F5" cx="343.22" cy="178.911" r="0.918"/>
					</g>
					<path fill-rule="evenodd" clip-rule="evenodd" fill="#46749C" d="M198.483,196.221h168.659c2.069,0,3.762,1.693,3.762,3.762
						l0,0c0,2.069-1.693,3.762-3.762,3.762H198.483c-2.069,0-3.762-1.693-3.762-3.762l0,0
						C194.721,197.914,196.414,196.221,198.483,196.221z"/>
					<path fill-rule="evenodd" clip-rule="evenodd" fill="#4D4D4D" d="M370.904,199.983c0,2.069-1.694,3.762-3.763,3.762H198.483
						c-2.069,0-3.762-1.693-3.762-3.762H370.904z"/>
				</g>
				<rect x="211.342" y="85.8" fill-rule="evenodd" clip-rule="evenodd" fill="#FFFFFF" width="142.941" height="86.735"/>
				<rect x="220.83" y="85.8" fill-rule="evenodd" clip-rule="evenodd" fill="#91BDE3" width="123.964" height="7.511"/>
				<rect x="253.966" y="97.88" fill-rule="evenodd" clip-rule="evenodd" fill="#ED7B5C" width="57.693" height="11.441"/>
				<rect x="220.83" y="122.716" fill-rule="evenodd" clip-rule="evenodd" fill="#5896CC" width="123.965" height="31.539"/>
				<rect x="244.64" y="113.794" fill-rule="evenodd" clip-rule="evenodd" fill="#91BDE3" width="76.346" height="4.795"/>
				<rect x="228.339" y="160.587" fill-rule="evenodd" clip-rule="evenodd" fill="#FFD47F" width="31.127" height="11.947"/>
				<rect x="267.249" y="160.587" fill-rule="evenodd" clip-rule="evenodd" fill="#ED7B5C" width="31.127" height="11.947"/>
				<rect x="306.159" y="160.587" fill-rule="evenodd" clip-rule="evenodd" fill="#91BDE3" width="31.128" height="11.947"/>
				<g>
					<path fill="#FFFFFF" d="M338.033,136.457c-0.197-0.248-0.156-0.609,0.092-0.806c0.248-0.197,0.609-0.156,0.806,0.092
						l1.485,1.861c0.014,0.016,0.026,0.034,0.037,0.051l0.002,0.003l0.014,0.024l0.011,0.02l0.003,0.005l0.01,0.021l0.006,0.013
						c0.008,0.02,0.015,0.04,0.022,0.06l0.002,0.006c0.008,0.026,0.013,0.052,0.017,0.079l0,0.005
						c0.003,0.02,0.004,0.039,0.005,0.059v0.013v0.007v0.013c-0.001,0.02-0.002,0.04-0.005,0.06l0,0.005
						c-0.004,0.026-0.009,0.053-0.017,0.078l-0.002,0.006c-0.006,0.02-0.013,0.04-0.022,0.06l-0.006,0.013l-0.01,0.021l-0.003,0.005
						l-0.011,0.021l-0.014,0.024l-0.002,0.002c-0.011,0.018-0.024,0.035-0.037,0.052l-1.485,1.86
						c-0.197,0.248-0.559,0.289-0.806,0.092c-0.248-0.197-0.289-0.559-0.092-0.806l1.205-1.509L338.033,136.457z"/>
					<path fill="#FFFFFF" d="M226.694,135.743c0.197-0.248,0.558-0.289,0.806-0.092c0.248,0.197,0.289,0.558,0.092,0.806
						l-1.205,1.509l1.205,1.509c0.197,0.247,0.156,0.608-0.092,0.806c-0.248,0.197-0.609,0.156-0.806-0.092l-1.486-1.86
						c-0.014-0.017-0.026-0.034-0.037-0.052l-0.002-0.002l-0.014-0.024l-0.011-0.021l-0.003-0.005l-0.01-0.021l-0.005-0.013
						c-0.009-0.02-0.016-0.04-0.022-0.06l-0.002-0.006c-0.008-0.026-0.013-0.052-0.017-0.078l0-0.005
						c-0.003-0.02-0.005-0.04-0.005-0.06v-0.013v-0.007v-0.013c0-0.02,0.002-0.04,0.005-0.059l0-0.005
						c0.004-0.026,0.009-0.053,0.017-0.079l0.002-0.006c0.006-0.02,0.013-0.04,0.022-0.06l0.005-0.013l0.01-0.021l0.003-0.005
						l0.011-0.02l0.014-0.024l0.002-0.003c0.011-0.017,0.024-0.035,0.037-0.051L226.694,135.743z"/>
				</g>
			</g>
			<g>
				<path fill-rule="evenodd" clip-rule="evenodd" fill="#ED7B5C" d="M323.849,98.094l-5.453,14.896l14.674-6.024l46.505-48.338
					c1.33-1.384,1.287-3.604-0.096-4.935l-4.192-4.032c-1.383-1.33-3.604-1.287-4.935,0.095L323.849,98.094z"/>
				<path fill-rule="evenodd" clip-rule="evenodd" fill="#FA9891" d="M323.849,98.094l-5.452,14.896l10.465-10.878l48.522-50.436
					l-2.095-2.016c-1.383-1.331-3.604-1.287-4.934,0.095L323.849,98.094z"/>
				<path fill-rule="evenodd" clip-rule="evenodd" fill="#CCCCCC" d="M323.849,98.094l-5.453,14.896l14.674-6.024l42.942-44.635
					c-2.716-3.676-5.793-6.588-9.221-8.871L323.849,98.094z"/>
				<path fill-rule="evenodd" clip-rule="evenodd" fill="#FFFFFF" d="M323.849,98.094l-5.452,14.896l10.465-10.878l42.929-44.622
					c-1.573-1.522-3.24-2.859-5-4.031L323.849,98.094z"/>
				<path fill-rule="evenodd" clip-rule="evenodd" fill="#ED7B5C" d="M323.849,98.094l-5.453,14.896l14.674-6.024l40.112-41.693
					c-2.696-3.732-5.774-6.641-9.221-8.871L323.849,98.094z"/>
				<path fill-rule="evenodd" clip-rule="evenodd" fill="#FA9891" d="M324.181,97.772l-5.41,14.78l10.384-10.793l39.813-41.383
					c-1.565-1.516-3.228-2.833-4.988-3.972L324.181,97.772z"/>
				<path fill-rule="evenodd" clip-rule="evenodd" fill="#CCCCCC" d="M323.849,98.094l-5.452,14.896l14.674-6.024
					c-1.203-1.681-2.61-3.316-4.208-4.854C327.262,100.574,325.575,99.232,323.849,98.094z"/>
				<path fill-rule="evenodd" clip-rule="evenodd" fill="#FFFFFF" d="M323.849,98.094l-5.453,14.896l10.465-10.878
					C327.262,100.574,325.575,99.231,323.849,98.094z"/>
				<path fill-rule="evenodd" clip-rule="evenodd" fill="#91BDE3" d="M320.198,108.069l-1.801,4.921l4.848-1.99
					c-0.398-0.556-0.862-1.095-1.39-1.603C321.326,108.888,320.768,108.445,320.198,108.069z"/>
			</g>
		</g>
		<g>
			<circle fill="#466366" cx="534.313" cy="368.854" r="8.673"/>
			
				<rect x="378.923" y="207.971" transform="matrix(-0.7071 0.7071 -0.7071 -0.7071 833.3989 111.211)" fill="#3D5659" width="29.489" height="40.475"/>
			<g>
				<path fill="#466366" d="M212.176,218.886c47.543,47.543,124.625,47.543,172.168,0c47.543-47.543,47.543-124.625,0-172.168
					c-47.543-47.543-124.625-47.543-172.168,0S164.634,171.343,212.176,218.886z M223.56,207.502
					c-41.256-41.256-41.256-108.145,0-149.401c41.256-41.256,108.145-41.256,149.401,0s41.256,108.145,0,149.401
					C331.705,248.758,264.816,248.758,223.56,207.502z"/>
			</g>
			<circle opacity="0.15" fill="#F2F2F2" cx="298.26" cy="132.802" r="105.642"/>
			<g opacity="0.2">
				<path fill="#F2F2F2" d="M223.56,58.101c41.256-41.256,108.145-41.256,149.401,0C331.705,99.357,264.816,99.357,223.56,58.101z"
					/>
			</g>
			<path fill="#476466" d="M396.81,272.083l40.732-40.732c1.171-1.172,1.171-3.071,0-4.243l-4.957-4.957
				c-1.171-1.172-3.071-1.172-4.243,0l-40.732,40.731c-1.172,1.172-1.172,3.071,0,4.243l4.957,4.957
				C393.739,273.255,395.639,273.255,396.81,272.083z"/>
			<path fill="#3D5659" d="M521.699,381.469l25.229-25.229c1.953-1.953,1.953-5.118,0-7.071L433.326,235.568l-32.3,32.3
				l113.602,113.602C516.581,383.421,519.746,383.421,521.699,381.469z"/>
			<g opacity="0.2">
				<path fill="#1A2526" d="M212.176,218.886c-47.543-47.543-47.543-124.625,0-172.168l11.383,11.383
					c-41.256,41.256-41.256,108.145,0,149.401c41.256,41.256,108.145,41.256,149.401,0l167.485,167.485
					c-3.387,3.387-8.879,3.387-12.266,0l-5.928,5.928c-2.258,2.258-5.919,2.258-8.177,0L401.026,267.867l-3.884,3.884
					c-1.355,1.355-3.551,1.355-4.906,0l-4.293-4.293c-1.355-1.355-1.355-3.551,0-4.906l9.608-9.608l-24.263-24.262
					C325.516,266.16,256.19,262.899,212.176,218.886z"/>
			</g>
		</g>
		<g display="none">
			<path display="inline" fill="#FFFFFF" stroke="#FF3D2E" stroke-width="7" stroke-miterlimit="10" d="M357.147,162.814
				c0,3.53-2.947,6.391-6.582,6.391h-97.85c-3.635,0-6.582-2.861-6.582-6.391V94.64c0-3.53,2.947-6.391,6.582-6.391h97.85
				c3.635,0,6.582,2.861,6.582,6.391V162.814z"/>
			<polygon display="inline" fill="#FF3D2E" points="285.745,104.923 326.333,128.398 285.745,151.435 			"/>
			<polygon display="inline" fill="#050B55" points="251.081,176.884 265.342,184.783 251.081,193.339 			"/>
			<rect x="272.143" y="182.15" display="inline" width="60.992" height="4.827"/>
			<rect x="340.155" y="176.884" display="inline" width="4.388" height="14.699"/>
			<rect x="347.615" y="176.884" display="inline" width="4.388" height="14.699"/>
		</g>
	</g>
</g>
</svg>
