<?xml version="1.0" encoding="utf-8"?>
<!-- Generator: Adobe Illustrator 17.0.0, SVG Export Plug-In . SVG Version: 6.00 Build 0)  -->
<!DOCTYPE svg PUBLIC "-//W3C//DTD SVG 1.1//EN" "http://www.w3.org/Graphics/SVG/1.1/DTD/svg11.dtd">
<svg version="1.1" id="Layer_1" xmlns="http://www.w3.org/2000/svg" xmlns:xlink="http://www.w3.org/1999/xlink" x="0px" y="0px"
	 width="300px" height="300px" viewBox="0 0 300 300" enable-background="new 0 0 300 300" xml:space="preserve">
<path fill-rule="evenodd" clip-rule="evenodd" fill="#FFB203" d="M150.501,272.272c72.121,0,130.943-58.821,130.943-130.942
	S222.622,10.386,150.501,10.386S19.559,69.209,19.559,141.33S78.38,272.272,150.501,272.272z"/>
<g>
	<g>
		<path fill-rule="evenodd" clip-rule="evenodd" fill="#8F4A15" d="M45.729,230.361c8.037-32.736,20.432-80.631,27-74.738
			c8.929,8.011,27.654-107.809,39.433-91.173c11.779,16.637,32.11,84.404,40.177,78.023c8.067-6.38,26.71,37.271,29.686,31.727
			c2.401-4.476,12.165-35.108,23.551-19.029c8.688,12.268,22.867,80.131,33.139,69.69c2.811-2.858,6.747,2.493,11.739,12.069
			c-26.11,35.778-53.768,47.97-99.952,47.97S108.271,227.442,45.729,230.361z"/>
		<path fill-rule="evenodd" clip-rule="evenodd" fill="#BA6422" d="M226.984,189.14c10.728,16.122,5.539,43.813,11.126,38.134
			c2.813-2.858,6.747,2.493,11.739,12.069c-26.109,35.778-61.709,45.557-99.349,45.557c-37.639,0-53.365-7.792-75.246-21.284
			c3.201-7.426,7.267-15.085,9.995-21.415c4.642-10.769,11.603-6.922,17.019-16.152c5.416-9.23,10.831-6.153,14.699,0
			c3.867,6.153,14.697-4.615,23.207-19.999C159.279,206.57,192.022,199.164,226.984,189.14z"/>
	</g>
	<path fill-rule="evenodd" clip-rule="evenodd" fill="#B3672D" d="M45.729,230.361c8.037-32.736,20.432-80.631,27-74.738
		c8.928,8.011,27.654-107.809,39.433-91.173c11.779,16.637,32.11,84.404,40.177,78.023c8.067-6.38,26.71,37.271,29.686,31.727
		c2.401-4.476,12.165-35.108,23.551-19.029c8.688,12.268,19.649,84.355,29.921,73.914c2.812-2.858,6.747,2.492,11.739,12.068
		c-26.11,35.779-50.551,43.747-96.734,43.747S92.862,215.115,45.729,230.361z"/>
	<path fill-rule="evenodd" clip-rule="evenodd" fill="#A35A23" d="M73.593,156.476c7.697,13.026,12.198,32.717,21.079,21.467
		c8.881-11.249,7.697-15.394,15.986,1.184c8.289,16.578,19.539,0,23.091,7.105c3.553,7.105,17.171-23.092,38.486-2.369
		c19.239,18.705-45.93,83.71-58.806,96.194c-29.394-7.835-32.552-59.342-67.7-49.697c8.037-32.736,20.432-80.632,27-74.738
		c0.168,0.15,0.344,0.244,0.523,0.31C73.366,156.117,73.477,156.29,73.593,156.476z"/>
	<path fill-rule="evenodd" clip-rule="evenodd" fill="#8F4A15" d="M229.578,197.167c10.729,16.122,2.544,35.182,8.13,29.503
		c1.606-1.632,6.593,4.362,11.578,12.292c-26.123,35.652-61.195,45.938-98.785,45.938c-37.59,0-53.365-7.792-75.246-21.284
		c3.201-7.426,7.267-15.085,9.995-21.415c4.642-10.769,11.603-6.922,17.019-16.152c5.416-9.23,10.831-6.153,14.699,0
		c3.867,6.153,14.224-4.852,22.733-20.235c6.936-5.721,16.934,0.295,28.95-11.248C178.89,184.728,214.341,210.37,229.578,197.167z"
		/>
	<path fill-rule="evenodd" clip-rule="evenodd" fill="#D2FCF4" d="M94.435,96.12c6.01-22.215,12.792-38.641,17.727-31.67
		c11.779,16.637,32.11,84.404,40.177,78.023c8.067-6.38,26.71,37.271,29.686,31.727c2.401-4.476,12.165-35.108,23.551-19.029
		c29.42,41.545,43.133,71.492,45.895,86.169c-20.07-0.609-4.145-11.621-13.654-15.311c-5.614-2.179,4.144-13.711-3.26-12.659
		c-7.403,1.052-7.473,1.823-14.808-5.784c-7.253-7.521-13.103-1.38-19.972-7.197c-8.483-7.184-13.064,2.469-18.684,0.131
		c-8.64-3.594-11.273-1.238-14.98,7.204c-4.395,10.01-7.383,11.179-11.423,1.224c-1.268-3.126-7.289-1.581-9.895,0.094
		c-5.15,3.312-10.833,6.087-6.488-3.032c3.544-7.436,5.817-5.784,12.692-5.258c6.874,0.525,7.993-5.351,11.44-11.042
		c5.258-8.678,13.191-6.32,18.975-1.982c3.416,2.562,6.404,1.708,11.528,0.854c5.124-0.854,8.112,3.416,14.944,8.113
		c6.832,4.696,12.81-1.708,7.686-2.135c-5.123-0.427-3.843-7.686-7.686-9.395c-3.843-1.708-2.988-10.248-3.843-6.831
		c-0.854,3.416-7.497,16.794-6.7-1.527c0.796-18.32-7.854-8.738-15.135-1.593c-2.524,2.477-3.91-1.993-10.057,0.299
		c-4.23,1.577-5.817-13.145-11.635-9.464c-5.816,3.681-6.346-4.732-6.346-13.672c0-8.938-4.76,1.578-10.048,13.146
		c-5.288,11.567-6.346-12.619-5.288-22.609c1.058-9.991-3.174-22.085-9.52-21.559c-6.346,0.525-2.644-18.403-7.932-18.403
		c-5.289,0-4.76-9.99-8.991-5.259c-4.229,4.732-12.845,14.971-10.088,2.637C105.063,87.993,102.28,91.095,94.435,96.12z"/>
</g>
<g>
	<polygon fill-rule="evenodd" clip-rule="evenodd" fill="#0C8069" points="82.348,251.019 92.515,264.952 31.599,264.952 
		41.765,251.019 35.244,251.019 47.319,234.47 41.383,234.47 53.777,217.483 47.193,217.483 62.056,197.113 76.919,217.483 
		70.334,217.483 82.729,234.47 76.795,234.47 88.869,251.019 	"/>
	<polygon fill-rule="evenodd" clip-rule="evenodd" fill="#12967C" points="118.652,269.948 128.819,283.881 67.903,283.881 
		78.069,269.948 71.55,269.948 83.624,253.399 77.687,253.399 90.082,236.412 83.498,236.412 98.36,216.042 113.224,236.412 
		106.64,236.412 119.034,253.399 113.099,253.399 125.174,269.948 	"/>
	<polygon fill-rule="evenodd" clip-rule="evenodd" fill="#0C8069" points="254.872,251.018 265.038,264.952 204.122,264.952 
		214.288,251.018 207.769,251.018 219.843,234.47 213.907,234.47 226.301,217.482 219.718,217.482 234.579,197.112 249.442,217.482 
		242.858,217.482 255.253,234.47 249.318,234.47 261.393,251.018 	"/>
	<polygon fill-rule="evenodd" clip-rule="evenodd" fill="#12967C" points="224.143,269.948 234.309,283.881 173.393,283.881 
		183.559,269.948 177.039,269.948 189.114,253.4 183.178,253.4 195.571,236.413 188.988,236.413 203.851,216.042 218.713,236.413 
		212.129,236.413 224.524,253.4 218.589,253.4 230.663,269.948 	"/>
	<polygon fill-rule="evenodd" clip-rule="evenodd" fill="#1AB092" points="170.793,275.731 180.96,289.664 120.043,289.664 
		130.21,275.731 123.689,275.731 135.765,259.182 129.828,259.182 142.222,242.195 135.639,242.195 150.501,221.825 
		165.363,242.195 158.779,242.195 171.175,259.182 165.24,259.182 177.313,275.731 	"/>
</g>
<path fill="#FFFFFF" d="M108.575,32.234c0.001-1.286,2.273-1.256,2.272,0.029l-0.03,32.469c-0.001,1.286-2.273,1.255-2.272-0.03
	L108.575,32.234z"/>
<path fill-rule="evenodd" clip-rule="evenodd" fill="#DB3779" d="M148.894,33.82c-22.663,8.31-29.27-10.543-40.289,1.806
	l-0.016,17.805c11.02-12.349,17.626,6.504,40.289-1.806c-5.361-2.712-7.148-4.15-10.141-7.343
	C142.562,41.391,145.952,38.363,148.894,33.82z"/>
</svg>
