<?xml version="1.0" encoding="utf-8"?>
<!-- Generator: Adobe Illustrator 17.0.0, SVG Export Plug-In . SVG Version: 6.00 Build 0)  -->
<!DOCTYPE svg PUBLIC "-//W3C//DTD SVG 1.1//EN" "http://www.w3.org/Graphics/SVG/1.1/DTD/svg11.dtd">
<svg version="1.1" id="Layer_1" xmlns="http://www.w3.org/2000/svg" xmlns:xlink="http://www.w3.org/1999/xlink" x="0px" y="0px"
	 width="176.667px" height="177.333px" viewBox="0 0 176.667 177.333" enable-background="new 0 0 176.667 177.333"
	 xml:space="preserve">
<g>
	<circle fill="#FB5919" cx="88.712" cy="90.009" r="80"/>
	<g>
		<polygon fill="none" stroke="#FBBA19" stroke-miterlimit="10" points="125.833,103.962 142.833,87.712 142.833,67.833 
			125.833,67.833 		"/>
		<path fill="none" d="M54.1,67.333H37.333v19.441c2,2.126,4.253,4.371,6.539,6.537c0.961,0.91,10.383,8.76,10.209,9.519
			c1.404-6.125,0.108-13.371,0.107-19.653C54.188,77.75,54.1,71.333,54.1,67.333z"/>
		<path fill="#FBBA19" d="M145.646,63.337c-1.858,0.295-23.312-0.21-23.312,0c0-0.001,0-12.003,0-12.003H55.35l-0.859,9.595
			c0,0-16.484-0.593-19.609,0.032s-3.906,4.781-3.906,4.782c-0.881,4.582-0.474,9.36-0.231,13.984
			c0.068,1.287-0.605,9.538,0.232,10.258c0,0,17.642,15.215,25.454,20.582c8.75,21.93,28.579,21.826,28.579,21.826l-0.361,37.347
			l10.547,0.268l1.094-38.234c17.813,0.938,27.742-20,27.742-20l24.304-23.437c0,0,0-20.313,0-22.813
			C148.333,63.053,145.688,63.33,145.646,63.337z M53.898,102.83c0.174-0.758-9.065-8.609-10.026-9.519
			c-2.286-2.165-4.539-4.411-6.539-6.537V67.333H54.1c0,4-0.004,10.417-0.003,15.843C54.098,89.458,55.302,96.704,53.898,102.83z
			 M105.24,110.824l-15.202-7.992l-15.202,7.992l2.903-16.928L65.44,81.907l16.997-2.47l7.601-15.402l7.601,15.402l16.997,2.47
			l-12.299,11.989L105.24,110.824z M144.333,87.712l-18.71,15.905l-0.273-36.283h18.983V87.712z"/>
		<polygon fill="#FFFFFF" points="97.639,79.437 90.038,64.035 82.436,79.437 65.44,81.907 77.739,93.895 74.835,110.824 
			90.038,102.831 105.24,110.824 102.337,93.895 114.636,81.907 		"/>
	</g>
</g>
</svg>
