<?xml version="1.0" encoding="utf-8"?>
<!-- Generator: Adobe Illustrator 15.0.0, SVG Export Plug-In . SVG Version: 6.00 Build 0)  -->
<!DOCTYPE svg PUBLIC "-//W3C//DTD SVG 1.1//EN" "http://www.w3.org/Graphics/SVG/1.1/DTD/svg11.dtd">
<svg version="1.1" id="Layer_1" xmlns="http://www.w3.org/2000/svg" xmlns:xlink="http://www.w3.org/1999/xlink" x="0px" y="0px"
	 width="42px" height="42px" viewBox="0 0 42 42" enable-background="new 0 0 42 42" xml:space="preserve">
<path fill="#FFFFFF" d="M24.383,230.204l0.002,0.002c0-0.001,0.001-0.003,0.001-0.004C24.385,230.203,24.384,230.203,24.383,230.204
	z"/>
<g>
	<path fill="#2AA9E0" d="M40.875,34.789c0,3.43-2.781,6.211-6.211,6.211H7.336c-3.43,0-6.211-2.781-6.211-6.211V7.461
		c0-3.43,2.781-6.211,6.211-6.211h27.328c3.43,0,6.211,2.781,6.211,6.211V34.789z"/>
	<path fill="#FFFFFF" d="M34.25,12.906c-0.976,0.433-2.022,0.725-3.123,0.856c1.123-0.673,1.985-1.739,2.391-3.008
		c-1.05,0.624-2.214,1.075-3.452,1.32c-0.992-1.057-2.404-1.717-3.969-1.717c-3.002,0-5.437,2.434-5.437,5.436
		c0,0.426,0.048,0.841,0.141,1.239c-4.519-0.226-8.524-2.391-11.206-5.68c-0.468,0.803-0.736,1.736-0.736,2.733
		c0,1.886,0.959,3.55,2.418,4.525c-0.891-0.028-1.729-0.273-2.462-0.68c-0.001,0.022-0.001,0.045-0.001,0.068
		c0,2.634,1.875,4.831,4.361,5.331c-0.456,0.124-0.937,0.191-1.432,0.191c-0.35,0-0.691-0.035-1.023-0.099
		c0.692,2.16,2.7,3.732,5.079,3.776c-1.861,1.458-4.205,2.327-6.752,2.327c-0.439,0-0.872-0.025-1.297-0.076
		c2.406,1.543,5.264,2.443,8.334,2.443c10,0,15.469-8.285,15.469-15.469c0-0.235-0.006-0.47-0.017-0.704
		C32.6,14.955,33.521,13.997,34.25,12.906z"/>
	<path fill="#1A70B7" d="M19.297,41h15.367c3.43,0,6.211-2.781,6.211-6.211V18.117l-7.358-7.359
		c-0.406,1.269-1.269,2.333-2.39,3.005c1.101-0.131,2.148-0.423,3.123-0.856c-0.729,1.09-1.65,2.048-2.713,2.814
		c0.011,0.234,0.017,0.468,0.017,0.704c0,7.184-5.47,15.469-15.47,15.469c-3.07,0-5.928-0.9-8.334-2.443"/>
</g>
</svg>
